<?xml version="1.0" encoding="utf-8" standalone="no"?>
<!DOCTYPE svg PUBLIC "-//W3C//DTD SVG 1.1//EN"
  "http://www.w3.org/Graphics/SVG/1.1/DTD/svg11.dtd">
<!-- Created with matplotlib (https://matplotlib.org/) -->
<svg height="345.6pt" version="1.1" viewBox="0 0 460.8 345.6" width="460.8pt" xmlns="http://www.w3.org/2000/svg" xmlns:xlink="http://www.w3.org/1999/xlink">
 <defs>
  <style type="text/css">
*{stroke-linecap:butt;stroke-linejoin:round;}
  </style>
 </defs>
 <g id="figure_1">
  <g id="patch_1">
   <path d="M 0 345.6 
L 460.8 345.6 
L 460.8 0 
L 0 0 
z
" style="fill:#ffffff;"/>
  </g>
  <g id="axes_1">
   <g id="patch_2">
    <path d="M 58.44 156.135249 
L 230.4425 156.135249 
L 230.4425 51.84 
L 58.44 51.84 
z
" style="fill:#ffffff;"/>
   </g>
   <g id="patch_3">
    <path clip-path="url(#p6008ac6204)" d="M 58.784005 156.135249 
L 61.536045 156.135249 
L 61.536045 56.853621 
L 58.784005 56.853621 
z
" style="fill:#808080;"/>
   </g>
   <g id="patch_4">
    <path clip-path="url(#p6008ac6204)" d="M 62.224055 156.135249 
L 64.976095 156.135249 
L 64.976095 120.663218 
L 62.224055 120.663218 
z
" style="fill:#808080;"/>
   </g>
   <g id="patch_5">
    <path clip-path="url(#p6008ac6204)" d="M 65.664105 156.135249 
L 68.416145 156.135249 
L 68.416145 143.086435 
L 65.664105 143.086435 
z
" style="fill:#808080;"/>
   </g>
   <g id="patch_6">
    <path clip-path="url(#p6008ac6204)" d="M 69.104155 156.135249 
L 71.856195 156.135249 
L 71.856195 143.821555 
L 69.104155 143.821555 
z
" style="fill:#808080;"/>
   </g>
   <g id="patch_7">
    <path clip-path="url(#p6008ac6204)" d="M 72.544205 156.135249 
L 75.296245 156.135249 
L 75.296245 143.931218 
L 72.544205 143.931218 
z
" style="fill:#808080;"/>
   </g>
   <g id="patch_8">
    <path clip-path="url(#p6008ac6204)" d="M 75.984255 156.135249 
L 78.736295 156.135249 
L 78.736295 144.306952 
L 75.984255 144.306952 
z
" style="fill:#808080;"/>
   </g>
   <g id="patch_9">
    <path clip-path="url(#p6008ac6204)" d="M 79.424305 156.135249 
L 82.176345 156.135249 
L 82.176345 145.59725 
L 79.424305 145.59725 
z
" style="fill:#808080;"/>
   </g>
   <g id="patch_10">
    <path clip-path="url(#p6008ac6204)" d="M 82.864355 156.135249 
L 85.616395 156.135249 
L 85.616395 148.321404 
L 82.864355 148.321404 
z
" style="fill:#808080;"/>
   </g>
   <g id="patch_11">
    <path clip-path="url(#p6008ac6204)" d="M 86.304405 156.135249 
L 89.056445 156.135249 
L 89.056445 150.188598 
L 86.304405 150.188598 
z
" style="fill:#808080;"/>
   </g>
   <g id="patch_12">
    <path clip-path="url(#p6008ac6204)" d="M 89.744455 156.135249 
L 92.496495 156.135249 
L 92.496495 151.403744 
L 89.744455 151.403744 
z
" style="fill:#808080;"/>
   </g>
   <g id="patch_13">
    <path clip-path="url(#p6008ac6204)" d="M 93.184505 156.135249 
L 95.936545 156.135249 
L 95.936545 151.680854 
L 93.184505 151.680854 
z
" style="fill:#808080;"/>
   </g>
   <g id="patch_14">
    <path clip-path="url(#p6008ac6204)" d="M 96.624555 156.135249 
L 99.376595 156.135249 
L 99.376595 152.814233 
L 96.624555 152.814233 
z
" style="fill:#808080;"/>
   </g>
   <g id="patch_15">
    <path clip-path="url(#p6008ac6204)" d="M 100.064605 156.135249 
L 102.816645 156.135249 
L 102.816645 153.203342 
L 100.064605 153.203342 
z
" style="fill:#808080;"/>
   </g>
   <g id="patch_16">
    <path clip-path="url(#p6008ac6204)" d="M 103.504655 156.135249 
L 106.256695 156.135249 
L 106.256695 153.274449 
L 103.504655 153.274449 
z
" style="fill:#808080;"/>
   </g>
   <g id="patch_17">
    <path clip-path="url(#p6008ac6204)" d="M 106.944705 156.135249 
L 109.696745 156.135249 
L 109.696745 153.390485 
L 106.944705 153.390485 
z
" style="fill:#808080;"/>
   </g>
   <g id="patch_18">
    <path clip-path="url(#p6008ac6204)" d="M 110.384755 156.135249 
L 113.136795 156.135249 
L 113.136795 153.374585 
L 110.384755 153.374585 
z
" style="fill:#808080;"/>
   </g>
   <g id="patch_19">
    <path clip-path="url(#p6008ac6204)" d="M 113.824805 156.135249 
L 116.576845 156.135249 
L 116.576845 153.576832 
L 113.824805 153.576832 
z
" style="fill:#808080;"/>
   </g>
   <g id="patch_20">
    <path clip-path="url(#p6008ac6204)" d="M 117.264855 156.135249 
L 120.016895 156.135249 
L 120.016895 153.839432 
L 117.264855 153.839432 
z
" style="fill:#808080;"/>
   </g>
   <g id="patch_21">
    <path clip-path="url(#p6008ac6204)" d="M 120.704905 156.135249 
L 123.456945 156.135249 
L 123.456945 153.989899 
L 120.704905 153.989899 
z
" style="fill:#808080;"/>
   </g>
   <g id="patch_22">
    <path clip-path="url(#p6008ac6204)" d="M 124.144955 156.135249 
L 126.896995 156.135249 
L 126.896995 153.87103 
L 124.144955 153.87103 
z
" style="fill:#808080;"/>
   </g>
   <g id="patch_23">
    <path clip-path="url(#p6008ac6204)" d="M 127.585005 156.135249 
L 130.337045 156.135249 
L 130.337045 154.081292 
L 127.585005 154.081292 
z
" style="fill:#808080;"/>
   </g>
   <g id="patch_24">
    <path clip-path="url(#p6008ac6204)" d="M 131.025055 156.135249 
L 133.777095 156.135249 
L 133.777095 154.079134 
L 131.025055 154.079134 
z
" style="fill:#808080;"/>
   </g>
   <g id="patch_25">
    <path clip-path="url(#p6008ac6204)" d="M 134.465105 156.135249 
L 137.217145 156.135249 
L 137.217145 154.269265 
L 134.465105 154.269265 
z
" style="fill:#808080;"/>
   </g>
   <g id="patch_26">
    <path clip-path="url(#p6008ac6204)" d="M 137.905155 156.135249 
L 140.657195 156.135249 
L 140.657195 154.329496 
L 137.905155 154.329496 
z
" style="fill:#808080;"/>
   </g>
   <g id="patch_27">
    <path clip-path="url(#p6008ac6204)" d="M 141.345205 156.135249 
L 144.097245 156.135249 
L 144.097245 154.522515 
L 141.345205 154.522515 
z
" style="fill:#808080;"/>
   </g>
   <g id="patch_28">
    <path clip-path="url(#p6008ac6204)" d="M 144.785255 156.135249 
L 147.537295 156.135249 
L 147.537295 154.54326 
L 144.785255 154.54326 
z
" style="fill:#808080;"/>
   </g>
   <g id="patch_29">
    <path clip-path="url(#p6008ac6204)" d="M 148.225305 156.135249 
L 150.977345 156.135249 
L 150.977345 154.582998 
L 148.225305 154.582998 
z
" style="fill:#808080;"/>
   </g>
   <g id="patch_30">
    <path clip-path="url(#p6008ac6204)" d="M 151.665355 156.135249 
L 154.417395 156.135249 
L 154.417395 154.719718 
L 151.665355 154.719718 
z
" style="fill:#808080;"/>
   </g>
   <g id="patch_31">
    <path clip-path="url(#p6008ac6204)" d="M 155.105405 156.135249 
L 157.857445 156.135249 
L 157.857445 154.641772 
L 155.105405 154.641772 
z
" style="fill:#808080;"/>
   </g>
   <g id="patch_32">
    <path clip-path="url(#p6008ac6204)" d="M 158.545455 156.135249 
L 161.297495 156.135249 
L 161.297495 154.766197 
L 158.545455 154.766197 
z
" style="fill:#808080;"/>
   </g>
   <g id="patch_33">
    <path clip-path="url(#p6008ac6204)" d="M 161.985505 156.135249 
L 164.737545 156.135249 
L 164.737545 154.809179 
L 161.985505 154.809179 
z
" style="fill:#808080;"/>
   </g>
   <g id="patch_34">
    <path clip-path="url(#p6008ac6204)" d="M 165.425555 156.135249 
L 168.177595 156.135249 
L 168.177595 154.7998 
L 165.425555 154.7998 
z
" style="fill:#808080;"/>
   </g>
   <g id="patch_35">
    <path clip-path="url(#p6008ac6204)" d="M 168.865605 156.135249 
L 171.617645 156.135249 
L 171.617645 154.762901 
L 168.865605 154.762901 
z
" style="fill:#808080;"/>
   </g>
   <g id="patch_36">
    <path clip-path="url(#p6008ac6204)" d="M 172.305655 156.135249 
L 175.057695 156.135249 
L 175.057695 154.897747 
L 172.305655 154.897747 
z
" style="fill:#808080;"/>
   </g>
   <g id="patch_37">
    <path clip-path="url(#p6008ac6204)" d="M 175.745705 156.135249 
L 178.497745 156.135249 
L 178.497745 154.939406 
L 175.745705 154.939406 
z
" style="fill:#808080;"/>
   </g>
   <g id="patch_38">
    <path clip-path="url(#p6008ac6204)" d="M 179.185755 156.135249 
L 181.937795 156.135249 
L 181.937795 155.130923 
L 179.185755 155.130923 
z
" style="fill:#808080;"/>
   </g>
   <g id="patch_39">
    <path clip-path="url(#p6008ac6204)" d="M 182.625805 156.135249 
L 185.377845 156.135249 
L 185.377845 154.759632 
L 182.625805 154.759632 
z
" style="fill:#808080;"/>
   </g>
   <g id="patch_40">
    <path clip-path="url(#p6008ac6204)" d="M 186.065855 156.135249 
L 188.817895 156.135249 
L 188.817895 154.930817 
L 186.065855 154.930817 
z
" style="fill:#808080;"/>
   </g>
   <g id="patch_41">
    <path clip-path="url(#p6008ac6204)" d="M 189.505905 156.135249 
L 192.257945 156.135249 
L 192.257945 155.050259 
L 189.505905 155.050259 
z
" style="fill:#808080;"/>
   </g>
   <g id="patch_42">
    <path clip-path="url(#p6008ac6204)" d="M 192.945955 156.135249 
L 195.697995 156.135249 
L 195.697995 155.021883 
L 192.945955 155.021883 
z
" style="fill:#808080;"/>
   </g>
   <g id="patch_43">
    <path clip-path="url(#p6008ac6204)" d="M 196.386005 156.135249 
L 199.138045 156.135249 
L 199.138045 155.048178 
L 196.386005 155.048178 
z
" style="fill:#808080;"/>
   </g>
   <g id="patch_44">
    <path clip-path="url(#p6008ac6204)" d="M 199.826055 156.135249 
L 202.578095 156.135249 
L 202.578095 155.187088 
L 199.826055 155.187088 
z
" style="fill:#808080;"/>
   </g>
   <g id="patch_45">
    <path clip-path="url(#p6008ac6204)" d="M 203.266105 156.135249 
L 206.018145 156.135249 
L 206.018145 155.075891 
L 203.266105 155.075891 
z
" style="fill:#808080;"/>
   </g>
   <g id="patch_46">
    <path clip-path="url(#p6008ac6204)" d="M 206.706155 156.135249 
L 209.458195 156.135249 
L 209.458195 155.141839 
L 206.706155 155.141839 
z
" style="fill:#808080;"/>
   </g>
   <g id="patch_47">
    <path clip-path="url(#p6008ac6204)" d="M 210.146205 156.135249 
L 212.898245 156.135249 
L 212.898245 155.079988 
L 210.146205 155.079988 
z
" style="fill:#808080;"/>
   </g>
   <g id="patch_48">
    <path clip-path="url(#p6008ac6204)" d="M 213.586255 156.135249 
L 216.338295 156.135249 
L 216.338295 155.202943 
L 213.586255 155.202943 
z
" style="fill:#808080;"/>
   </g>
   <g id="patch_49">
    <path clip-path="url(#p6008ac6204)" d="M 217.026305 156.135249 
L 219.778345 156.135249 
L 219.778345 155.08434 
L 217.026305 155.08434 
z
" style="fill:#808080;"/>
   </g>
   <g id="patch_50">
    <path clip-path="url(#p6008ac6204)" d="M 220.466355 156.135249 
L 223.218395 156.135249 
L 223.218395 155.102766 
L 220.466355 155.102766 
z
" style="fill:#808080;"/>
   </g>
   <g id="patch_51">
    <path clip-path="url(#p6008ac6204)" d="M 223.906405 156.135249 
L 226.658445 156.135249 
L 226.658445 155.001635 
L 223.906405 155.001635 
z
" style="fill:#808080;"/>
   </g>
   <g id="patch_52">
    <path clip-path="url(#p6008ac6204)" d="M 227.346455 156.135249 
L 230.098495 156.135249 
L 230.098495 155.13112 
L 227.346455 155.13112 
z
" style="fill:#808080;"/>
   </g>
   <g id="patch_53">
    <path clip-path="url(#p6008ac6204)" d="M 58.787431 156.135249 
L 61.539361 156.135249 
L 61.539361 56.80644 
L 58.787431 56.80644 
z
" style="fill:#808080;"/>
   </g>
   <g id="patch_54">
    <path clip-path="url(#p6008ac6204)" d="M 62.227344 156.135249 
L 64.979274 156.135249 
L 64.979274 120.69821 
L 62.227344 120.69821 
z
" style="fill:#808080;"/>
   </g>
   <g id="patch_55">
    <path clip-path="url(#p6008ac6204)" d="M 65.667256 156.135249 
L 68.419186 156.135249 
L 68.419186 143.098624 
L 65.667256 143.098624 
z
" style="fill:#808080;"/>
   </g>
   <g id="patch_56">
    <path clip-path="url(#p6008ac6204)" d="M 69.107168 156.135249 
L 71.859098 156.135249 
L 71.859098 143.821555 
L 69.107168 143.821555 
z
" style="fill:#808080;"/>
   </g>
   <g id="patch_57">
    <path clip-path="url(#p6008ac6204)" d="M 72.547081 156.135249 
L 75.299011 156.135249 
L 75.299011 143.884072 
L 72.547081 143.884072 
z
" style="fill:#808080;"/>
   </g>
   <g id="patch_58">
    <path clip-path="url(#p6008ac6204)" d="M 75.986993 156.135249 
L 78.738923 156.135249 
L 78.738923 144.354098 
L 75.986993 144.354098 
z
" style="fill:#808080;"/>
   </g>
   <g id="patch_59">
    <path clip-path="url(#p6008ac6204)" d="M 79.426906 156.135249 
L 82.178836 156.135249 
L 82.178836 145.59725 
L 79.426906 145.59725 
z
" style="fill:#808080;"/>
   </g>
   <g id="patch_60">
    <path clip-path="url(#p6008ac6204)" d="M 82.866818 156.135249 
L 85.618748 156.135249 
L 85.618748 148.31618 
L 82.866818 148.31618 
z
" style="fill:#808080;"/>
   </g>
   <g id="patch_61">
    <path clip-path="url(#p6008ac6204)" d="M 86.30673 156.135249 
L 89.05866 156.135249 
L 89.05866 150.184244 
L 86.30673 150.184244 
z
" style="fill:#808080;"/>
   </g>
   <g id="patch_62">
    <path clip-path="url(#p6008ac6204)" d="M 89.746643 156.135249 
L 92.498573 156.135249 
L 92.498573 151.404179 
L 89.746643 151.404179 
z
" style="fill:#808080;"/>
   </g>
   <g id="patch_63">
    <path clip-path="url(#p6008ac6204)" d="M 93.186555 156.135249 
L 95.938485 156.135249 
L 95.938485 151.684336 
L 93.186555 151.684336 
z
" style="fill:#808080;"/>
   </g>
   <g id="patch_64">
    <path clip-path="url(#p6008ac6204)" d="M 96.626468 156.135249 
L 99.378398 156.135249 
L 99.378398 152.819893 
L 96.626468 152.819893 
z
" style="fill:#808080;"/>
   </g>
   <g id="patch_65">
    <path clip-path="url(#p6008ac6204)" d="M 100.06638 156.135249 
L 102.81831 156.135249 
L 102.81831 153.201937 
L 100.06638 153.201937 
z
" style="fill:#808080;"/>
   </g>
   <g id="patch_66">
    <path clip-path="url(#p6008ac6204)" d="M 103.506292 156.135249 
L 106.258222 156.135249 
L 106.258222 153.275854 
L 103.506292 153.275854 
z
" style="fill:#808080;"/>
   </g>
   <g id="patch_67">
    <path clip-path="url(#p6008ac6204)" d="M 106.946205 156.135249 
L 109.698135 156.135249 
L 109.698135 153.390439 
L 106.946205 153.390439 
z
" style="fill:#808080;"/>
   </g>
   <g id="patch_68">
    <path clip-path="url(#p6008ac6204)" d="M 110.386117 156.135249 
L 113.138047 156.135249 
L 113.138047 153.370288 
L 110.386117 153.370288 
z
" style="fill:#808080;"/>
   </g>
   <g id="patch_69">
    <path clip-path="url(#p6008ac6204)" d="M 113.82603 156.135249 
L 116.57796 156.135249 
L 116.57796 153.581175 
L 113.82603 153.581175 
z
" style="fill:#808080;"/>
   </g>
   <g id="patch_70">
    <path clip-path="url(#p6008ac6204)" d="M 117.265942 156.135249 
L 120.017872 156.135249 
L 120.017872 153.837169 
L 117.265942 153.837169 
z
" style="fill:#808080;"/>
   </g>
   <g id="patch_71">
    <path clip-path="url(#p6008ac6204)" d="M 120.705854 156.135249 
L 123.457784 156.135249 
L 123.457784 153.992163 
L 120.705854 153.992163 
z
" style="fill:#808080;"/>
   </g>
   <g id="patch_72">
    <path clip-path="url(#p6008ac6204)" d="M 124.145767 156.135249 
L 126.897697 156.135249 
L 126.897697 153.869977 
L 124.145767 153.869977 
z
" style="fill:#808080;"/>
   </g>
   <g id="patch_73">
    <path clip-path="url(#p6008ac6204)" d="M 127.585679 156.135249 
L 130.337609 156.135249 
L 130.337609 154.081365 
L 127.585679 154.081365 
z
" style="fill:#808080;"/>
   </g>
   <g id="patch_74">
    <path clip-path="url(#p6008ac6204)" d="M 131.025592 156.135249 
L 133.777522 156.135249 
L 133.777522 154.080113 
L 131.025592 154.080113 
z
" style="fill:#808080;"/>
   </g>
   <g id="patch_75">
    <path clip-path="url(#p6008ac6204)" d="M 134.465504 156.135249 
L 137.217434 156.135249 
L 137.217434 154.269265 
L 134.465504 154.269265 
z
" style="fill:#808080;"/>
   </g>
   <g id="patch_76">
    <path clip-path="url(#p6008ac6204)" d="M 137.905416 156.135249 
L 140.657346 156.135249 
L 140.657346 154.329496 
L 137.905416 154.329496 
z
" style="fill:#808080;"/>
   </g>
   <g id="patch_77">
    <path clip-path="url(#p6008ac6204)" d="M 141.345329 156.135249 
L 144.097259 156.135249 
L 144.097259 154.522142 
L 141.345329 154.522142 
z
" style="fill:#808080;"/>
   </g>
   <g id="patch_78">
    <path clip-path="url(#p6008ac6204)" d="M 144.785241 156.135249 
L 147.537171 156.135249 
L 147.537171 154.543633 
L 144.785241 154.543633 
z
" style="fill:#808080;"/>
   </g>
   <g id="patch_79">
    <path clip-path="url(#p6008ac6204)" d="M 148.225154 156.135249 
L 150.977084 156.135249 
L 150.977084 154.582998 
L 148.225154 154.582998 
z
" style="fill:#808080;"/>
   </g>
   <g id="patch_80">
    <path clip-path="url(#p6008ac6204)" d="M 151.665066 156.135249 
L 154.416996 156.135249 
L 154.416996 154.72246 
L 151.665066 154.72246 
z
" style="fill:#808080;"/>
   </g>
   <g id="patch_81">
    <path clip-path="url(#p6008ac6204)" d="M 155.104978 156.135249 
L 157.856908 156.135249 
L 157.856908 154.646866 
L 155.104978 154.646866 
z
" style="fill:#808080;"/>
   </g>
   <g id="patch_82">
    <path clip-path="url(#p6008ac6204)" d="M 158.544891 156.135249 
L 161.296821 156.135249 
L 161.296821 154.758361 
L 158.544891 154.758361 
z
" style="fill:#808080;"/>
   </g>
   <g id="patch_83">
    <path clip-path="url(#p6008ac6204)" d="M 161.984803 156.135249 
L 164.736733 156.135249 
L 164.736733 154.809179 
L 161.984803 154.809179 
z
" style="fill:#808080;"/>
   </g>
   <g id="patch_84">
    <path clip-path="url(#p6008ac6204)" d="M 165.424716 156.135249 
L 168.176646 156.135249 
L 168.176646 154.7998 
L 165.424716 154.7998 
z
" style="fill:#808080;"/>
   </g>
   <g id="patch_85">
    <path clip-path="url(#p6008ac6204)" d="M 168.864628 156.135249 
L 171.616558 156.135249 
L 171.616558 154.762901 
L 168.864628 154.762901 
z
" style="fill:#808080;"/>
   </g>
   <g id="patch_86">
    <path clip-path="url(#p6008ac6204)" d="M 172.30454 156.135249 
L 175.05647 156.135249 
L 175.05647 154.90506 
L 172.30454 154.90506 
z
" style="fill:#808080;"/>
   </g>
   <g id="patch_87">
    <path clip-path="url(#p6008ac6204)" d="M 175.744453 156.135249 
L 178.496383 156.135249 
L 178.496383 154.932092 
L 175.744453 154.932092 
z
" style="fill:#808080;"/>
   </g>
   <g id="patch_88">
    <path clip-path="url(#p6008ac6204)" d="M 179.184365 156.135249 
L 181.936295 156.135249 
L 181.936295 155.130923 
L 179.184365 155.130923 
z
" style="fill:#808080;"/>
   </g>
   <g id="patch_89">
    <path clip-path="url(#p6008ac6204)" d="M 182.624278 156.135249 
L 185.376208 156.135249 
L 185.376208 154.759632 
L 182.624278 154.759632 
z
" style="fill:#808080;"/>
   </g>
   <g id="patch_90">
    <path clip-path="url(#p6008ac6204)" d="M 186.06419 156.135249 
L 188.81612 156.135249 
L 188.81612 154.93103 
L 186.06419 154.93103 
z
" style="fill:#808080;"/>
   </g>
   <g id="patch_91">
    <path clip-path="url(#p6008ac6204)" d="M 189.504102 156.135249 
L 192.256032 156.135249 
L 192.256032 155.05066 
L 189.504102 155.05066 
z
" style="fill:#808080;"/>
   </g>
   <g id="patch_92">
    <path clip-path="url(#p6008ac6204)" d="M 192.944015 156.135249 
L 195.695945 156.135249 
L 195.695945 155.021269 
L 192.944015 155.021269 
z
" style="fill:#808080;"/>
   </g>
   <g id="patch_93">
    <path clip-path="url(#p6008ac6204)" d="M 196.383927 156.135249 
L 199.135857 156.135249 
L 199.135857 155.048178 
L 196.383927 155.048178 
z
" style="fill:#808080;"/>
   </g>
   <g id="patch_94">
    <path clip-path="url(#p6008ac6204)" d="M 199.82384 156.135249 
L 202.57577 156.135249 
L 202.57577 155.187088 
L 199.82384 155.187088 
z
" style="fill:#808080;"/>
   </g>
   <g id="patch_95">
    <path clip-path="url(#p6008ac6204)" d="M 203.263752 156.135249 
L 206.015682 156.135249 
L 206.015682 155.075891 
L 203.263752 155.075891 
z
" style="fill:#808080;"/>
   </g>
   <g id="patch_96">
    <path clip-path="url(#p6008ac6204)" d="M 206.703664 156.135249 
L 209.455594 156.135249 
L 209.455594 155.141839 
L 206.703664 155.141839 
z
" style="fill:#808080;"/>
   </g>
   <g id="patch_97">
    <path clip-path="url(#p6008ac6204)" d="M 210.143577 156.135249 
L 212.895507 156.135249 
L 212.895507 155.079988 
L 210.143577 155.079988 
z
" style="fill:#808080;"/>
   </g>
   <g id="patch_98">
    <path clip-path="url(#p6008ac6204)" d="M 213.583489 156.135249 
L 216.335419 156.135249 
L 216.335419 155.202943 
L 213.583489 155.202943 
z
" style="fill:#808080;"/>
   </g>
   <g id="patch_99">
    <path clip-path="url(#p6008ac6204)" d="M 217.023402 156.135249 
L 219.775332 156.135249 
L 219.775332 155.08434 
L 217.023402 155.08434 
z
" style="fill:#808080;"/>
   </g>
   <g id="patch_100">
    <path clip-path="url(#p6008ac6204)" d="M 220.463314 156.135249 
L 223.215244 156.135249 
L 223.215244 155.10799 
L 220.463314 155.10799 
z
" style="fill:#808080;"/>
   </g>
   <g id="patch_101">
    <path clip-path="url(#p6008ac6204)" d="M 223.903226 156.135249 
L 226.655156 156.135249 
L 226.655156 154.996411 
L 223.903226 154.996411 
z
" style="fill:#808080;"/>
   </g>
   <g id="patch_102">
    <path clip-path="url(#p6008ac6204)" d="M 227.343139 156.135249 
L 230.095069 156.135249 
L 230.095069 155.13112 
L 227.343139 155.13112 
z
" style="fill:#808080;"/>
   </g>
   <g id="matplotlib.axis_1">
    <g id="xtick_1">
     <g id="line2d_1">
      <defs>
       <path d="M 0 0 
L 0 3.5 
" id="m52383dd5d4" style="stroke:#000000;stroke-width:0.8;"/>
      </defs>
      <g>
       <use style="stroke:#000000;stroke-width:0.8;" x="58.44" xlink:href="#m52383dd5d4" y="157.135249"/>
      </g>
     </g>
     <g id="text_1">
      <!-- 0 -->
      <defs>
       <path d="M 31.78125 66.40625 
Q 24.171875 66.40625 20.328125 58.90625 
Q 16.5 51.421875 16.5 36.375 
Q 16.5 21.390625 20.328125 13.890625 
Q 24.171875 6.390625 31.78125 6.390625 
Q 39.453125 6.390625 43.28125 13.890625 
Q 47.125 21.390625 47.125 36.375 
Q 47.125 51.421875 43.28125 58.90625 
Q 39.453125 66.40625 31.78125 66.40625 
z
M 31.78125 74.21875 
Q 44.046875 74.21875 50.515625 64.515625 
Q 56.984375 54.828125 56.984375 36.375 
Q 56.984375 17.96875 50.515625 8.265625 
Q 44.046875 -1.421875 31.78125 -1.421875 
Q 19.53125 -1.421875 13.0625 8.265625 
Q 6.59375 17.96875 6.59375 36.375 
Q 6.59375 54.828125 13.0625 64.515625 
Q 19.53125 74.21875 31.78125 74.21875 
z
" id="DejaVuSans-48"/>
      </defs>
      <g transform="translate(55.25875 171.733687)scale(0.1 -0.1)">
       <use xlink:href="#DejaVuSans-48"/>
      </g>
     </g>
    </g>
    <g id="xtick_2">
     <g id="line2d_2">
      <g>
       <use style="stroke:#000000;stroke-width:0.8;" x="92.8405" xlink:href="#m52383dd5d4" y="157.135249"/>
      </g>
     </g>
     <g id="text_2">
      <!-- 1 -->
      <defs>
       <path d="M 12.40625 8.296875 
L 28.515625 8.296875 
L 28.515625 63.921875 
L 10.984375 60.40625 
L 10.984375 69.390625 
L 28.421875 72.90625 
L 38.28125 72.90625 
L 38.28125 8.296875 
L 54.390625 8.296875 
L 54.390625 0 
L 12.40625 0 
z
" id="DejaVuSans-49"/>
      </defs>
      <g transform="translate(89.65925 171.733687)scale(0.1 -0.1)">
       <use xlink:href="#DejaVuSans-49"/>
      </g>
     </g>
    </g>
    <g id="xtick_3">
     <g id="line2d_3">
      <g>
       <use style="stroke:#000000;stroke-width:0.8;" x="127.241" xlink:href="#m52383dd5d4" y="157.135249"/>
      </g>
     </g>
     <g id="text_3">
      <!-- 2 -->
      <defs>
       <path d="M 19.1875 8.296875 
L 53.609375 8.296875 
L 53.609375 0 
L 7.328125 0 
L 7.328125 8.296875 
Q 12.9375 14.109375 22.625 23.890625 
Q 32.328125 33.6875 34.8125 36.53125 
Q 39.546875 41.84375 41.421875 45.53125 
Q 43.3125 49.21875 43.3125 52.78125 
Q 43.3125 58.59375 39.234375 62.25 
Q 35.15625 65.921875 28.609375 65.921875 
Q 23.96875 65.921875 18.8125 64.3125 
Q 13.671875 62.703125 7.8125 59.421875 
L 7.8125 69.390625 
Q 13.765625 71.78125 18.9375 73 
Q 24.125 74.21875 28.421875 74.21875 
Q 39.75 74.21875 46.484375 68.546875 
Q 53.21875 62.890625 53.21875 53.421875 
Q 53.21875 48.921875 51.53125 44.890625 
Q 49.859375 40.875 45.40625 35.40625 
Q 44.1875 33.984375 37.640625 27.21875 
Q 31.109375 20.453125 19.1875 8.296875 
z
" id="DejaVuSans-50"/>
      </defs>
      <g transform="translate(124.05975 171.733687)scale(0.1 -0.1)">
       <use xlink:href="#DejaVuSans-50"/>
      </g>
     </g>
    </g>
    <g id="xtick_4">
     <g id="line2d_4">
      <g>
       <use style="stroke:#000000;stroke-width:0.8;" x="161.6415" xlink:href="#m52383dd5d4" y="157.135249"/>
      </g>
     </g>
     <g id="text_4">
      <!-- 3 -->
      <defs>
       <path d="M 40.578125 39.3125 
Q 47.65625 37.796875 51.625 33 
Q 55.609375 28.21875 55.609375 21.1875 
Q 55.609375 10.40625 48.1875 4.484375 
Q 40.765625 -1.421875 27.09375 -1.421875 
Q 22.515625 -1.421875 17.65625 -0.515625 
Q 12.796875 0.390625 7.625 2.203125 
L 7.625 11.71875 
Q 11.71875 9.328125 16.59375 8.109375 
Q 21.484375 6.890625 26.8125 6.890625 
Q 36.078125 6.890625 40.9375 10.546875 
Q 45.796875 14.203125 45.796875 21.1875 
Q 45.796875 27.640625 41.28125 31.265625 
Q 36.765625 34.90625 28.71875 34.90625 
L 20.21875 34.90625 
L 20.21875 43.015625 
L 29.109375 43.015625 
Q 36.375 43.015625 40.234375 45.921875 
Q 44.09375 48.828125 44.09375 54.296875 
Q 44.09375 59.90625 40.109375 62.90625 
Q 36.140625 65.921875 28.71875 65.921875 
Q 24.65625 65.921875 20.015625 65.03125 
Q 15.375 64.15625 9.8125 62.3125 
L 9.8125 71.09375 
Q 15.4375 72.65625 20.34375 73.4375 
Q 25.25 74.21875 29.59375 74.21875 
Q 40.828125 74.21875 47.359375 69.109375 
Q 53.90625 64.015625 53.90625 55.328125 
Q 53.90625 49.265625 50.4375 45.09375 
Q 46.96875 40.921875 40.578125 39.3125 
z
" id="DejaVuSans-51"/>
      </defs>
      <g transform="translate(158.46025 171.733687)scale(0.1 -0.1)">
       <use xlink:href="#DejaVuSans-51"/>
      </g>
     </g>
    </g>
    <g id="xtick_5">
     <g id="line2d_5">
      <g>
       <use style="stroke:#000000;stroke-width:0.8;" x="196.042" xlink:href="#m52383dd5d4" y="157.135249"/>
      </g>
     </g>
     <g id="text_5">
      <!-- 4 -->
      <defs>
       <path d="M 37.796875 64.3125 
L 12.890625 25.390625 
L 37.796875 25.390625 
z
M 35.203125 72.90625 
L 47.609375 72.90625 
L 47.609375 25.390625 
L 58.015625 25.390625 
L 58.015625 17.1875 
L 47.609375 17.1875 
L 47.609375 0 
L 37.796875 0 
L 37.796875 17.1875 
L 4.890625 17.1875 
L 4.890625 26.703125 
z
" id="DejaVuSans-52"/>
      </defs>
      <g transform="translate(192.86075 171.733687)scale(0.1 -0.1)">
       <use xlink:href="#DejaVuSans-52"/>
      </g>
     </g>
    </g>
    <g id="xtick_6">
     <g id="line2d_6">
      <g>
       <use style="stroke:#000000;stroke-width:0.8;" x="230.4425" xlink:href="#m52383dd5d4" y="157.135249"/>
      </g>
     </g>
     <g id="text_6">
      <!-- 5 -->
      <defs>
       <path d="M 10.796875 72.90625 
L 49.515625 72.90625 
L 49.515625 64.59375 
L 19.828125 64.59375 
L 19.828125 46.734375 
Q 21.96875 47.46875 24.109375 47.828125 
Q 26.265625 48.1875 28.421875 48.1875 
Q 40.625 48.1875 47.75 41.5 
Q 54.890625 34.8125 54.890625 23.390625 
Q 54.890625 11.625 47.5625 5.09375 
Q 40.234375 -1.421875 26.90625 -1.421875 
Q 22.3125 -1.421875 17.546875 -0.640625 
Q 12.796875 0.140625 7.71875 1.703125 
L 7.71875 11.625 
Q 12.109375 9.234375 16.796875 8.0625 
Q 21.484375 6.890625 26.703125 6.890625 
Q 35.15625 6.890625 40.078125 11.328125 
Q 45.015625 15.765625 45.015625 23.390625 
Q 45.015625 31 40.078125 35.4375 
Q 35.15625 39.890625 26.703125 39.890625 
Q 22.75 39.890625 18.8125 39.015625 
Q 14.890625 38.140625 10.796875 36.28125 
z
" id="DejaVuSans-53"/>
      </defs>
      <g transform="translate(227.26125 171.733687)scale(0.1 -0.1)">
       <use xlink:href="#DejaVuSans-53"/>
      </g>
     </g>
    </g>
    <g id="text_7">
     <!-- $K_\mathrm{S}$ -->
     <defs>
      <path d="M 16.890625 72.90625 
L 26.8125 72.90625 
L 20.796875 42.1875 
L 59.078125 72.90625 
L 72.21875 72.90625 
L 28.90625 38.09375 
L 60.59375 0 
L 48.578125 0 
L 19.484375 35.5 
L 12.59375 0 
L 2.6875 0 
z
" id="DejaVuSans-Oblique-75"/>
      <path d="M 53.515625 70.515625 
L 53.515625 60.890625 
Q 47.90625 63.578125 42.921875 64.890625 
Q 37.9375 66.21875 33.296875 66.21875 
Q 25.25 66.21875 20.875 63.09375 
Q 16.5 59.96875 16.5 54.203125 
Q 16.5 49.359375 19.40625 46.890625 
Q 22.3125 44.4375 30.421875 42.921875 
L 36.375 41.703125 
Q 47.40625 39.59375 52.65625 34.296875 
Q 57.90625 29 57.90625 20.125 
Q 57.90625 9.515625 50.796875 4.046875 
Q 43.703125 -1.421875 29.984375 -1.421875 
Q 24.8125 -1.421875 18.96875 -0.25 
Q 13.140625 0.921875 6.890625 3.21875 
L 6.890625 13.375 
Q 12.890625 10.015625 18.65625 8.296875 
Q 24.421875 6.59375 29.984375 6.59375 
Q 38.421875 6.59375 43.015625 9.90625 
Q 47.609375 13.234375 47.609375 19.390625 
Q 47.609375 24.75 44.3125 27.78125 
Q 41.015625 30.8125 33.5 32.328125 
L 27.484375 33.5 
Q 16.453125 35.6875 11.515625 40.375 
Q 6.59375 45.0625 6.59375 53.421875 
Q 6.59375 63.09375 13.40625 68.65625 
Q 20.21875 74.21875 32.171875 74.21875 
Q 37.3125 74.21875 42.625 73.28125 
Q 47.953125 72.359375 53.515625 70.515625 
z
" id="DejaVuSans-83"/>
     </defs>
     <g transform="translate(138.79125 185.411812)scale(0.1 -0.1)">
      <use transform="translate(0 0.09375)" xlink:href="#DejaVuSans-Oblique-75"/>
      <use transform="translate(65.576172 -16.3125)scale(0.7)" xlink:href="#DejaVuSans-83"/>
     </g>
    </g>
   </g>
   <g id="matplotlib.axis_2">
    <g id="ytick_1">
     <g id="line2d_7">
      <defs>
       <path d="M 0 0 
L -3.5 0 
" id="m078d223166" style="stroke:#000000;stroke-width:0.8;"/>
      </defs>
      <g>
       <use style="stroke:#000000;stroke-width:0.8;" x="57.44" xlink:href="#m078d223166" y="156.135249"/>
      </g>
     </g>
     <g id="text_8">
      <!-- 0 -->
      <g transform="translate(44.0775 159.934468)scale(0.1 -0.1)">
       <use xlink:href="#DejaVuSans-48"/>
      </g>
     </g>
    </g>
    <g id="ytick_2">
     <g id="line2d_8">
      <g>
       <use style="stroke:#000000;stroke-width:0.8;" x="57.44" xlink:href="#m078d223166" y="135.239598"/>
      </g>
     </g>
     <g id="text_9">
      <!-- 2000 -->
      <g transform="translate(24.99 139.038817)scale(0.1 -0.1)">
       <use xlink:href="#DejaVuSans-50"/>
       <use x="63.623047" xlink:href="#DejaVuSans-48"/>
       <use x="127.246094" xlink:href="#DejaVuSans-48"/>
       <use x="190.869141" xlink:href="#DejaVuSans-48"/>
      </g>
     </g>
    </g>
    <g id="ytick_3">
     <g id="line2d_9">
      <g>
       <use style="stroke:#000000;stroke-width:0.8;" x="57.44" xlink:href="#m078d223166" y="114.343947"/>
      </g>
     </g>
     <g id="text_10">
      <!-- 4000 -->
      <g transform="translate(24.99 118.143166)scale(0.1 -0.1)">
       <use xlink:href="#DejaVuSans-52"/>
       <use x="63.623047" xlink:href="#DejaVuSans-48"/>
       <use x="127.246094" xlink:href="#DejaVuSans-48"/>
       <use x="190.869141" xlink:href="#DejaVuSans-48"/>
      </g>
     </g>
    </g>
    <g id="ytick_4">
     <g id="line2d_10">
      <g>
       <use style="stroke:#000000;stroke-width:0.8;" x="57.44" xlink:href="#m078d223166" y="93.448296"/>
      </g>
     </g>
     <g id="text_11">
      <!-- 6000 -->
      <defs>
       <path d="M 33.015625 40.375 
Q 26.375 40.375 22.484375 35.828125 
Q 18.609375 31.296875 18.609375 23.390625 
Q 18.609375 15.53125 22.484375 10.953125 
Q 26.375 6.390625 33.015625 6.390625 
Q 39.65625 6.390625 43.53125 10.953125 
Q 47.40625 15.53125 47.40625 23.390625 
Q 47.40625 31.296875 43.53125 35.828125 
Q 39.65625 40.375 33.015625 40.375 
z
M 52.59375 71.296875 
L 52.59375 62.3125 
Q 48.875 64.0625 45.09375 64.984375 
Q 41.3125 65.921875 37.59375 65.921875 
Q 27.828125 65.921875 22.671875 59.328125 
Q 17.53125 52.734375 16.796875 39.40625 
Q 19.671875 43.65625 24.015625 45.921875 
Q 28.375 48.1875 33.59375 48.1875 
Q 44.578125 48.1875 50.953125 41.515625 
Q 57.328125 34.859375 57.328125 23.390625 
Q 57.328125 12.15625 50.6875 5.359375 
Q 44.046875 -1.421875 33.015625 -1.421875 
Q 20.359375 -1.421875 13.671875 8.265625 
Q 6.984375 17.96875 6.984375 36.375 
Q 6.984375 53.65625 15.1875 63.9375 
Q 23.390625 74.21875 37.203125 74.21875 
Q 40.921875 74.21875 44.703125 73.484375 
Q 48.484375 72.75 52.59375 71.296875 
z
" id="DejaVuSans-54"/>
      </defs>
      <g transform="translate(24.99 97.247515)scale(0.1 -0.1)">
       <use xlink:href="#DejaVuSans-54"/>
       <use x="63.623047" xlink:href="#DejaVuSans-48"/>
       <use x="127.246094" xlink:href="#DejaVuSans-48"/>
       <use x="190.869141" xlink:href="#DejaVuSans-48"/>
      </g>
     </g>
    </g>
    <g id="ytick_5">
     <g id="line2d_11">
      <g>
       <use style="stroke:#000000;stroke-width:0.8;" x="57.44" xlink:href="#m078d223166" y="72.552645"/>
      </g>
     </g>
     <g id="text_12">
      <!-- 8000 -->
      <defs>
       <path d="M 31.78125 34.625 
Q 24.75 34.625 20.71875 30.859375 
Q 16.703125 27.09375 16.703125 20.515625 
Q 16.703125 13.921875 20.71875 10.15625 
Q 24.75 6.390625 31.78125 6.390625 
Q 38.8125 6.390625 42.859375 10.171875 
Q 46.921875 13.96875 46.921875 20.515625 
Q 46.921875 27.09375 42.890625 30.859375 
Q 38.875 34.625 31.78125 34.625 
z
M 21.921875 38.8125 
Q 15.578125 40.375 12.03125 44.71875 
Q 8.5 49.078125 8.5 55.328125 
Q 8.5 64.0625 14.71875 69.140625 
Q 20.953125 74.21875 31.78125 74.21875 
Q 42.671875 74.21875 48.875 69.140625 
Q 55.078125 64.0625 55.078125 55.328125 
Q 55.078125 49.078125 51.53125 44.71875 
Q 48 40.375 41.703125 38.8125 
Q 48.828125 37.15625 52.796875 32.3125 
Q 56.78125 27.484375 56.78125 20.515625 
Q 56.78125 9.90625 50.3125 4.234375 
Q 43.84375 -1.421875 31.78125 -1.421875 
Q 19.734375 -1.421875 13.25 4.234375 
Q 6.78125 9.90625 6.78125 20.515625 
Q 6.78125 27.484375 10.78125 32.3125 
Q 14.796875 37.15625 21.921875 38.8125 
z
M 18.3125 54.390625 
Q 18.3125 48.734375 21.84375 45.5625 
Q 25.390625 42.390625 31.78125 42.390625 
Q 38.140625 42.390625 41.71875 45.5625 
Q 45.3125 48.734375 45.3125 54.390625 
Q 45.3125 60.0625 41.71875 63.234375 
Q 38.140625 66.40625 31.78125 66.40625 
Q 25.390625 66.40625 21.84375 63.234375 
Q 18.3125 60.0625 18.3125 54.390625 
z
" id="DejaVuSans-56"/>
      </defs>
      <g transform="translate(24.99 76.351864)scale(0.1 -0.1)">
       <use xlink:href="#DejaVuSans-56"/>
       <use x="63.623047" xlink:href="#DejaVuSans-48"/>
       <use x="127.246094" xlink:href="#DejaVuSans-48"/>
       <use x="190.869141" xlink:href="#DejaVuSans-48"/>
      </g>
     </g>
    </g>
    <g id="text_13">
     <!-- Duplications -->
     <defs>
      <path d="M 19.671875 64.796875 
L 19.671875 8.109375 
L 31.59375 8.109375 
Q 46.6875 8.109375 53.6875 14.9375 
Q 60.6875 21.78125 60.6875 36.53125 
Q 60.6875 51.171875 53.6875 57.984375 
Q 46.6875 64.796875 31.59375 64.796875 
z
M 9.8125 72.90625 
L 30.078125 72.90625 
Q 51.265625 72.90625 61.171875 64.09375 
Q 71.09375 55.28125 71.09375 36.53125 
Q 71.09375 17.671875 61.125 8.828125 
Q 51.171875 0 30.078125 0 
L 9.8125 0 
z
" id="DejaVuSans-68"/>
      <path d="M 8.5 21.578125 
L 8.5 54.6875 
L 17.484375 54.6875 
L 17.484375 21.921875 
Q 17.484375 14.15625 20.5 10.265625 
Q 23.53125 6.390625 29.59375 6.390625 
Q 36.859375 6.390625 41.078125 11.03125 
Q 45.3125 15.671875 45.3125 23.6875 
L 45.3125 54.6875 
L 54.296875 54.6875 
L 54.296875 0 
L 45.3125 0 
L 45.3125 8.40625 
Q 42.046875 3.421875 37.71875 1 
Q 33.40625 -1.421875 27.6875 -1.421875 
Q 18.265625 -1.421875 13.375 4.4375 
Q 8.5 10.296875 8.5 21.578125 
z
M 31.109375 56 
z
" id="DejaVuSans-117"/>
      <path d="M 18.109375 8.203125 
L 18.109375 -20.796875 
L 9.078125 -20.796875 
L 9.078125 54.6875 
L 18.109375 54.6875 
L 18.109375 46.390625 
Q 20.953125 51.265625 25.265625 53.625 
Q 29.59375 56 35.59375 56 
Q 45.5625 56 51.78125 48.09375 
Q 58.015625 40.1875 58.015625 27.296875 
Q 58.015625 14.40625 51.78125 6.484375 
Q 45.5625 -1.421875 35.59375 -1.421875 
Q 29.59375 -1.421875 25.265625 0.953125 
Q 20.953125 3.328125 18.109375 8.203125 
z
M 48.6875 27.296875 
Q 48.6875 37.203125 44.609375 42.84375 
Q 40.53125 48.484375 33.40625 48.484375 
Q 26.265625 48.484375 22.1875 42.84375 
Q 18.109375 37.203125 18.109375 27.296875 
Q 18.109375 17.390625 22.1875 11.75 
Q 26.265625 6.109375 33.40625 6.109375 
Q 40.53125 6.109375 44.609375 11.75 
Q 48.6875 17.390625 48.6875 27.296875 
z
" id="DejaVuSans-112"/>
      <path d="M 9.421875 75.984375 
L 18.40625 75.984375 
L 18.40625 0 
L 9.421875 0 
z
" id="DejaVuSans-108"/>
      <path d="M 9.421875 54.6875 
L 18.40625 54.6875 
L 18.40625 0 
L 9.421875 0 
z
M 9.421875 75.984375 
L 18.40625 75.984375 
L 18.40625 64.59375 
L 9.421875 64.59375 
z
" id="DejaVuSans-105"/>
      <path d="M 48.78125 52.59375 
L 48.78125 44.1875 
Q 44.96875 46.296875 41.140625 47.34375 
Q 37.3125 48.390625 33.40625 48.390625 
Q 24.65625 48.390625 19.8125 42.84375 
Q 14.984375 37.3125 14.984375 27.296875 
Q 14.984375 17.28125 19.8125 11.734375 
Q 24.65625 6.203125 33.40625 6.203125 
Q 37.3125 6.203125 41.140625 7.25 
Q 44.96875 8.296875 48.78125 10.40625 
L 48.78125 2.09375 
Q 45.015625 0.34375 40.984375 -0.53125 
Q 36.96875 -1.421875 32.421875 -1.421875 
Q 20.0625 -1.421875 12.78125 6.34375 
Q 5.515625 14.109375 5.515625 27.296875 
Q 5.515625 40.671875 12.859375 48.328125 
Q 20.21875 56 33.015625 56 
Q 37.15625 56 41.109375 55.140625 
Q 45.0625 54.296875 48.78125 52.59375 
z
" id="DejaVuSans-99"/>
      <path d="M 34.28125 27.484375 
Q 23.390625 27.484375 19.1875 25 
Q 14.984375 22.515625 14.984375 16.5 
Q 14.984375 11.71875 18.140625 8.90625 
Q 21.296875 6.109375 26.703125 6.109375 
Q 34.1875 6.109375 38.703125 11.40625 
Q 43.21875 16.703125 43.21875 25.484375 
L 43.21875 27.484375 
z
M 52.203125 31.203125 
L 52.203125 0 
L 43.21875 0 
L 43.21875 8.296875 
Q 40.140625 3.328125 35.546875 0.953125 
Q 30.953125 -1.421875 24.3125 -1.421875 
Q 15.921875 -1.421875 10.953125 3.296875 
Q 6 8.015625 6 15.921875 
Q 6 25.140625 12.171875 29.828125 
Q 18.359375 34.515625 30.609375 34.515625 
L 43.21875 34.515625 
L 43.21875 35.40625 
Q 43.21875 41.609375 39.140625 45 
Q 35.0625 48.390625 27.6875 48.390625 
Q 23 48.390625 18.546875 47.265625 
Q 14.109375 46.140625 10.015625 43.890625 
L 10.015625 52.203125 
Q 14.9375 54.109375 19.578125 55.046875 
Q 24.21875 56 28.609375 56 
Q 40.484375 56 46.34375 49.84375 
Q 52.203125 43.703125 52.203125 31.203125 
z
" id="DejaVuSans-97"/>
      <path d="M 18.3125 70.21875 
L 18.3125 54.6875 
L 36.8125 54.6875 
L 36.8125 47.703125 
L 18.3125 47.703125 
L 18.3125 18.015625 
Q 18.3125 11.328125 20.140625 9.421875 
Q 21.96875 7.515625 27.59375 7.515625 
L 36.8125 7.515625 
L 36.8125 0 
L 27.59375 0 
Q 17.1875 0 13.234375 3.875 
Q 9.28125 7.765625 9.28125 18.015625 
L 9.28125 47.703125 
L 2.6875 47.703125 
L 2.6875 54.6875 
L 9.28125 54.6875 
L 9.28125 70.21875 
z
" id="DejaVuSans-116"/>
      <path d="M 30.609375 48.390625 
Q 23.390625 48.390625 19.1875 42.75 
Q 14.984375 37.109375 14.984375 27.296875 
Q 14.984375 17.484375 19.15625 11.84375 
Q 23.34375 6.203125 30.609375 6.203125 
Q 37.796875 6.203125 41.984375 11.859375 
Q 46.1875 17.53125 46.1875 27.296875 
Q 46.1875 37.015625 41.984375 42.703125 
Q 37.796875 48.390625 30.609375 48.390625 
z
M 30.609375 56 
Q 42.328125 56 49.015625 48.375 
Q 55.71875 40.765625 55.71875 27.296875 
Q 55.71875 13.875 49.015625 6.21875 
Q 42.328125 -1.421875 30.609375 -1.421875 
Q 18.84375 -1.421875 12.171875 6.21875 
Q 5.515625 13.875 5.515625 27.296875 
Q 5.515625 40.765625 12.171875 48.375 
Q 18.84375 56 30.609375 56 
z
" id="DejaVuSans-111"/>
      <path d="M 54.890625 33.015625 
L 54.890625 0 
L 45.90625 0 
L 45.90625 32.71875 
Q 45.90625 40.484375 42.875 44.328125 
Q 39.84375 48.1875 33.796875 48.1875 
Q 26.515625 48.1875 22.3125 43.546875 
Q 18.109375 38.921875 18.109375 30.90625 
L 18.109375 0 
L 9.078125 0 
L 9.078125 54.6875 
L 18.109375 54.6875 
L 18.109375 46.1875 
Q 21.34375 51.125 25.703125 53.5625 
Q 30.078125 56 35.796875 56 
Q 45.21875 56 50.046875 50.171875 
Q 54.890625 44.34375 54.890625 33.015625 
z
" id="DejaVuSans-110"/>
      <path d="M 44.28125 53.078125 
L 44.28125 44.578125 
Q 40.484375 46.53125 36.375 47.5 
Q 32.28125 48.484375 27.875 48.484375 
Q 21.1875 48.484375 17.84375 46.4375 
Q 14.5 44.390625 14.5 40.28125 
Q 14.5 37.15625 16.890625 35.375 
Q 19.28125 33.59375 26.515625 31.984375 
L 29.59375 31.296875 
Q 39.15625 29.25 43.1875 25.515625 
Q 47.21875 21.78125 47.21875 15.09375 
Q 47.21875 7.46875 41.1875 3.015625 
Q 35.15625 -1.421875 24.609375 -1.421875 
Q 20.21875 -1.421875 15.453125 -0.5625 
Q 10.6875 0.296875 5.421875 2 
L 5.421875 11.28125 
Q 10.40625 8.6875 15.234375 7.390625 
Q 20.0625 6.109375 24.8125 6.109375 
Q 31.15625 6.109375 34.5625 8.28125 
Q 37.984375 10.453125 37.984375 14.40625 
Q 37.984375 18.0625 35.515625 20.015625 
Q 33.0625 21.96875 24.703125 23.78125 
L 21.578125 24.515625 
Q 13.234375 26.265625 9.515625 29.90625 
Q 5.8125 33.546875 5.8125 39.890625 
Q 5.8125 47.609375 11.28125 51.796875 
Q 16.75 56 26.8125 56 
Q 31.78125 56 36.171875 55.265625 
Q 40.578125 54.546875 44.28125 53.078125 
z
" id="DejaVuSans-115"/>
     </defs>
     <g transform="translate(18.910312 134.954031)rotate(-90)scale(0.1 -0.1)">
      <use xlink:href="#DejaVuSans-68"/>
      <use x="77.001953" xlink:href="#DejaVuSans-117"/>
      <use x="140.380859" xlink:href="#DejaVuSans-112"/>
      <use x="203.857422" xlink:href="#DejaVuSans-108"/>
      <use x="231.640625" xlink:href="#DejaVuSans-105"/>
      <use x="259.423828" xlink:href="#DejaVuSans-99"/>
      <use x="314.404297" xlink:href="#DejaVuSans-97"/>
      <use x="375.683594" xlink:href="#DejaVuSans-116"/>
      <use x="414.892578" xlink:href="#DejaVuSans-105"/>
      <use x="442.675781" xlink:href="#DejaVuSans-111"/>
      <use x="503.857422" xlink:href="#DejaVuSans-110"/>
      <use x="567.236328" xlink:href="#DejaVuSans-115"/>
     </g>
    </g>
   </g>
   <g id="patch_103">
    <path d="M 57.44 156.135249 
L 57.44 51.84 
" style="fill:none;stroke:#000000;stroke-linecap:square;stroke-linejoin:miter;stroke-width:0.8;"/>
   </g>
   <g id="patch_104">
    <path d="M 58.44 157.135249 
L 230.4425 157.135249 
" style="fill:none;stroke:#000000;stroke-linecap:square;stroke-linejoin:miter;stroke-width:0.8;"/>
   </g>
  </g>
  <g id="axes_2">
   <g id="patch_105">
    <path d="M 277.9975 156.135249 
L 450 156.135249 
L 450 51.84 
L 277.9975 51.84 
z
" style="fill:#ffffff;"/>
   </g>
   <g id="patch_106">
    <path clip-path="url(#pee11aa3ff4)" d="M 285.815795 156.135249 
L 288.327698 156.135249 
L 288.327698 150.179145 
L 285.815795 150.179145 
z
" style="fill:#808080;"/>
   </g>
   <g id="patch_107">
    <path clip-path="url(#pee11aa3ff4)" d="M 288.955673 156.135249 
L 291.467575 156.135249 
L 291.467575 156.135249 
L 288.955673 156.135249 
z
" style="fill:#808080;"/>
   </g>
   <g id="patch_108">
    <path clip-path="url(#pee11aa3ff4)" d="M 292.095551 156.135249 
L 294.607453 156.135249 
L 294.607453 156.135249 
L 292.095551 156.135249 
z
" style="fill:#808080;"/>
   </g>
   <g id="patch_109">
    <path clip-path="url(#pee11aa3ff4)" d="M 295.235429 156.135249 
L 297.747331 156.135249 
L 297.747331 153.719803 
L 295.235429 153.719803 
z
" style="fill:#808080;"/>
   </g>
   <g id="patch_110">
    <path clip-path="url(#pee11aa3ff4)" d="M 298.375306 156.135249 
L 300.887208 156.135249 
L 300.887208 154.271983 
L 298.375306 154.271983 
z
" style="fill:#808080;"/>
   </g>
   <g id="patch_111">
    <path clip-path="url(#pee11aa3ff4)" d="M 301.515184 156.135249 
L 304.027086 156.135249 
L 304.027086 156.135249 
L 301.515184 156.135249 
z
" style="fill:#808080;"/>
   </g>
   <g id="patch_112">
    <path clip-path="url(#pee11aa3ff4)" d="M 304.655062 156.135249 
L 307.166964 156.135249 
L 307.166964 154.444703 
L 304.655062 154.444703 
z
" style="fill:#808080;"/>
   </g>
   <g id="patch_113">
    <path clip-path="url(#pee11aa3ff4)" d="M 307.794939 156.135249 
L 310.306841 156.135249 
L 310.306841 155.549587 
L 307.794939 155.549587 
z
" style="fill:#808080;"/>
   </g>
   <g id="patch_114">
    <path clip-path="url(#pee11aa3ff4)" d="M 310.934817 156.135249 
L 313.446719 156.135249 
L 313.446719 155.885887 
L 310.934817 155.885887 
z
" style="fill:#808080;"/>
   </g>
   <g id="patch_115">
    <path clip-path="url(#pee11aa3ff4)" d="M 314.074695 156.135249 
L 316.586597 156.135249 
L 316.586597 155.245987 
L 314.074695 155.245987 
z
" style="fill:#808080;"/>
   </g>
   <g id="patch_116">
    <path clip-path="url(#pee11aa3ff4)" d="M 317.214572 156.135249 
L 319.726475 156.135249 
L 319.726475 155.626555 
L 317.214572 155.626555 
z
" style="fill:#808080;"/>
   </g>
   <g id="patch_117">
    <path clip-path="url(#pee11aa3ff4)" d="M 320.35445 156.135249 
L 322.866352 156.135249 
L 322.866352 155.505906 
L 320.35445 155.505906 
z
" style="fill:#808080;"/>
   </g>
   <g id="patch_118">
    <path clip-path="url(#pee11aa3ff4)" d="M 323.494328 156.135249 
L 326.00623 156.135249 
L 326.00623 155.514317 
L 323.494328 155.514317 
z
" style="fill:#808080;"/>
   </g>
   <g id="patch_119">
    <path clip-path="url(#pee11aa3ff4)" d="M 326.634205 156.135249 
L 329.146108 156.135249 
L 329.146108 154.951815 
L 326.634205 154.951815 
z
" style="fill:#808080;"/>
   </g>
   <g id="patch_120">
    <path clip-path="url(#pee11aa3ff4)" d="M 329.774083 156.135249 
L 332.285985 156.135249 
L 332.285985 155.237018 
L 329.774083 155.237018 
z
" style="fill:#808080;"/>
   </g>
   <g id="patch_121">
    <path clip-path="url(#pee11aa3ff4)" d="M 332.913961 156.135249 
L 335.425863 156.135249 
L 335.425863 154.562793 
L 332.913961 154.562793 
z
" style="fill:#808080;"/>
   </g>
   <g id="patch_122">
    <path clip-path="url(#pee11aa3ff4)" d="M 336.053839 156.135249 
L 338.565741 156.135249 
L 338.565741 154.320264 
L 336.053839 154.320264 
z
" style="fill:#808080;"/>
   </g>
   <g id="patch_123">
    <path clip-path="url(#pee11aa3ff4)" d="M 339.193716 156.135249 
L 341.705618 156.135249 
L 341.705618 153.704113 
L 339.193716 153.704113 
z
" style="fill:#808080;"/>
   </g>
   <g id="patch_124">
    <path clip-path="url(#pee11aa3ff4)" d="M 342.333594 156.135249 
L 344.845496 156.135249 
L 344.845496 152.823353 
L 342.333594 152.823353 
z
" style="fill:#808080;"/>
   </g>
   <g id="patch_125">
    <path clip-path="url(#pee11aa3ff4)" d="M 345.473472 156.135249 
L 347.985374 156.135249 
L 347.985374 150.834636 
L 345.473472 150.834636 
z
" style="fill:#808080;"/>
   </g>
   <g id="patch_126">
    <path clip-path="url(#pee11aa3ff4)" d="M 348.613349 156.135249 
L 351.125251 156.135249 
L 351.125251 149.336737 
L 348.613349 149.336737 
z
" style="fill:#808080;"/>
   </g>
   <g id="patch_127">
    <path clip-path="url(#pee11aa3ff4)" d="M 351.753227 156.135249 
L 354.265129 156.135249 
L 354.265129 144.867024 
L 351.753227 144.867024 
z
" style="fill:#808080;"/>
   </g>
   <g id="patch_128">
    <path clip-path="url(#pee11aa3ff4)" d="M 354.893105 156.135249 
L 357.405007 156.135249 
L 357.405007 141.374658 
L 354.893105 141.374658 
z
" style="fill:#808080;"/>
   </g>
   <g id="patch_129">
    <path clip-path="url(#pee11aa3ff4)" d="M 358.032982 156.135249 
L 360.544885 156.135249 
L 360.544885 131.129286 
L 358.032982 131.129286 
z
" style="fill:#808080;"/>
   </g>
   <g id="patch_130">
    <path clip-path="url(#pee11aa3ff4)" d="M 361.17286 156.135249 
L 363.684762 156.135249 
L 363.684762 116.38856 
L 361.17286 116.38856 
z
" style="fill:#808080;"/>
   </g>
   <g id="patch_131">
    <path clip-path="url(#pee11aa3ff4)" d="M 364.312738 156.135249 
L 366.82464 156.135249 
L 366.82464 93.73916 
L 364.312738 93.73916 
z
" style="fill:#808080;"/>
   </g>
   <g id="patch_132">
    <path clip-path="url(#pee11aa3ff4)" d="M 367.452615 156.135249 
L 369.964518 156.135249 
L 369.964518 73.527979 
L 367.452615 73.527979 
z
" style="fill:#808080;"/>
   </g>
   <g id="patch_133">
    <path clip-path="url(#pee11aa3ff4)" d="M 370.592493 156.135249 
L 373.104395 156.135249 
L 373.104395 62.168108 
L 370.592493 62.168108 
z
" style="fill:#808080;"/>
   </g>
   <g id="patch_134">
    <path clip-path="url(#pee11aa3ff4)" d="M 373.732371 156.135249 
L 376.244273 156.135249 
L 376.244273 56.80644 
L 373.732371 56.80644 
z
" style="fill:#808080;"/>
   </g>
   <g id="patch_135">
    <path clip-path="url(#pee11aa3ff4)" d="M 376.872249 156.135249 
L 379.384151 156.135249 
L 379.384151 59.479108 
L 376.872249 59.479108 
z
" style="fill:#808080;"/>
   </g>
   <g id="patch_136">
    <path clip-path="url(#pee11aa3ff4)" d="M 380.012126 156.135249 
L 382.524028 156.135249 
L 382.524028 75.913062 
L 380.012126 75.913062 
z
" style="fill:#808080;"/>
   </g>
   <g id="patch_137">
    <path clip-path="url(#pee11aa3ff4)" d="M 383.152004 156.135249 
L 385.663906 156.135249 
L 385.663906 88.018476 
L 383.152004 88.018476 
z
" style="fill:#808080;"/>
   </g>
   <g id="patch_138">
    <path clip-path="url(#pee11aa3ff4)" d="M 386.291882 156.135249 
L 388.803784 156.135249 
L 388.803784 103.500139 
L 386.291882 103.500139 
z
" style="fill:#808080;"/>
   </g>
   <g id="patch_139">
    <path clip-path="url(#pee11aa3ff4)" d="M 389.431759 156.135249 
L 391.943661 156.135249 
L 391.943661 113.912519 
L 389.431759 113.912519 
z
" style="fill:#808080;"/>
   </g>
   <g id="patch_140">
    <path clip-path="url(#pee11aa3ff4)" d="M 392.571637 156.135249 
L 395.083539 156.135249 
L 395.083539 112.425042 
L 392.571637 112.425042 
z
" style="fill:#808080;"/>
   </g>
   <g id="patch_141">
    <path clip-path="url(#pee11aa3ff4)" d="M 395.711515 156.135249 
L 398.223417 156.135249 
L 398.223417 99.184403 
L 395.711515 99.184403 
z
" style="fill:#808080;"/>
   </g>
   <g id="patch_142">
    <path clip-path="url(#pee11aa3ff4)" d="M 398.851392 156.135249 
L 401.363295 156.135249 
L 401.363295 84.303267 
L 398.851392 84.303267 
z
" style="fill:#808080;"/>
   </g>
   <g id="patch_143">
    <path clip-path="url(#pee11aa3ff4)" d="M 401.99127 156.135249 
L 404.503172 156.135249 
L 404.503172 70.84703 
L 401.99127 70.84703 
z
" style="fill:#808080;"/>
   </g>
   <g id="patch_144">
    <path clip-path="url(#pee11aa3ff4)" d="M 405.131148 156.135249 
L 407.64305 156.135249 
L 407.64305 72.711769 
L 405.131148 72.711769 
z
" style="fill:#808080;"/>
   </g>
   <g id="patch_145">
    <path clip-path="url(#pee11aa3ff4)" d="M 408.271025 156.135249 
L 410.782928 156.135249 
L 410.782928 93.510093 
L 408.271025 93.510093 
z
" style="fill:#808080;"/>
   </g>
   <g id="patch_146">
    <path clip-path="url(#pee11aa3ff4)" d="M 411.410903 156.135249 
L 413.922805 156.135249 
L 413.922805 101.927801 
L 411.410903 101.927801 
z
" style="fill:#808080;"/>
   </g>
   <g id="patch_147">
    <path clip-path="url(#pee11aa3ff4)" d="M 414.550781 156.135249 
L 417.062683 156.135249 
L 417.062683 104.288622 
L 414.550781 104.288622 
z
" style="fill:#808080;"/>
   </g>
   <g id="patch_148">
    <path clip-path="url(#pee11aa3ff4)" d="M 417.690659 156.135249 
L 420.202561 156.135249 
L 420.202561 101.770092 
L 417.690659 101.770092 
z
" style="fill:#808080;"/>
   </g>
   <g id="patch_149">
    <path clip-path="url(#pee11aa3ff4)" d="M 420.830536 156.135249 
L 423.342438 156.135249 
L 423.342438 101.346757 
L 420.830536 101.346757 
z
" style="fill:#808080;"/>
   </g>
   <g id="patch_150">
    <path clip-path="url(#pee11aa3ff4)" d="M 423.970414 156.135249 
L 426.482316 156.135249 
L 426.482316 102.372412 
L 423.970414 102.372412 
z
" style="fill:#808080;"/>
   </g>
   <g id="patch_151">
    <path clip-path="url(#pee11aa3ff4)" d="M 427.110292 156.135249 
L 429.622194 156.135249 
L 429.622194 100.01586 
L 427.110292 100.01586 
z
" style="fill:#808080;"/>
   </g>
   <g id="patch_152">
    <path clip-path="url(#pee11aa3ff4)" d="M 430.250169 156.135249 
L 432.762071 156.135249 
L 432.762071 96.552888 
L 430.250169 96.552888 
z
" style="fill:#808080;"/>
   </g>
   <g id="patch_153">
    <path clip-path="url(#pee11aa3ff4)" d="M 433.390047 156.135249 
L 435.901949 156.135249 
L 435.901949 156.135249 
L 433.390047 156.135249 
z
" style="fill:#808080;"/>
   </g>
   <g id="patch_154">
    <path clip-path="url(#pee11aa3ff4)" d="M 436.529925 156.135249 
L 439.041827 156.135249 
L 439.041827 156.135249 
L 436.529925 156.135249 
z
" style="fill:#808080;"/>
   </g>
   <g id="patch_155">
    <path clip-path="url(#pee11aa3ff4)" d="M 439.669802 156.135249 
L 442.181705 156.135249 
L 442.181705 156.135249 
L 439.669802 156.135249 
z
" style="fill:#808080;"/>
   </g>
   <g id="matplotlib.axis_3">
    <g id="xtick_7">
     <g id="line2d_12">
      <g>
       <use style="stroke:#000000;stroke-width:0.8;" x="285.501808" xlink:href="#m52383dd5d4" y="157.135249"/>
      </g>
     </g>
     <g id="text_14">
      <!-- 4 -->
      <defs>
       <path d="M 10.59375 35.5 
L 73.1875 35.5 
L 73.1875 27.203125 
L 10.59375 27.203125 
z
" id="DejaVuSans-8722"/>
      </defs>
      <g transform="translate(278.130714 171.733687)scale(0.1 -0.1)">
       <use xlink:href="#DejaVuSans-8722"/>
       <use x="83.789062" xlink:href="#DejaVuSans-52"/>
      </g>
     </g>
    </g>
    <g id="xtick_8">
     <g id="line2d_13">
      <g>
       <use style="stroke:#000000;stroke-width:0.8;" x="316.900585" xlink:href="#m52383dd5d4" y="157.135249"/>
      </g>
     </g>
     <g id="text_15">
      <!-- 3 -->
      <g transform="translate(309.529491 171.733687)scale(0.1 -0.1)">
       <use xlink:href="#DejaVuSans-8722"/>
       <use x="83.789062" xlink:href="#DejaVuSans-51"/>
      </g>
     </g>
    </g>
    <g id="xtick_9">
     <g id="line2d_14">
      <g>
       <use style="stroke:#000000;stroke-width:0.8;" x="348.299362" xlink:href="#m52383dd5d4" y="157.135249"/>
      </g>
     </g>
     <g id="text_16">
      <!-- 2 -->
      <g transform="translate(340.928268 171.733687)scale(0.1 -0.1)">
       <use xlink:href="#DejaVuSans-8722"/>
       <use x="83.789062" xlink:href="#DejaVuSans-50"/>
      </g>
     </g>
    </g>
    <g id="xtick_10">
     <g id="line2d_15">
      <g>
       <use style="stroke:#000000;stroke-width:0.8;" x="379.698138" xlink:href="#m52383dd5d4" y="157.135249"/>
      </g>
     </g>
     <g id="text_17">
      <!-- 1 -->
      <g transform="translate(372.327045 171.733687)scale(0.1 -0.1)">
       <use xlink:href="#DejaVuSans-8722"/>
       <use x="83.789062" xlink:href="#DejaVuSans-49"/>
      </g>
     </g>
    </g>
    <g id="xtick_11">
     <g id="line2d_16">
      <g>
       <use style="stroke:#000000;stroke-width:0.8;" x="411.096915" xlink:href="#m52383dd5d4" y="157.135249"/>
      </g>
     </g>
     <g id="text_18">
      <!-- 0 -->
      <g transform="translate(407.915665 171.733687)scale(0.1 -0.1)">
       <use xlink:href="#DejaVuSans-48"/>
      </g>
     </g>
    </g>
    <g id="xtick_12">
     <g id="line2d_17">
      <g>
       <use style="stroke:#000000;stroke-width:0.8;" x="442.495692" xlink:href="#m52383dd5d4" y="157.135249"/>
      </g>
     </g>
     <g id="text_19">
      <!-- 1 -->
      <g transform="translate(439.314442 171.733687)scale(0.1 -0.1)">
       <use xlink:href="#DejaVuSans-49"/>
      </g>
     </g>
    </g>
    <g id="text_20">
     <!-- $\log_{10}K_\mathrm{S}$ -->
     <defs>
      <path d="M 45.40625 27.984375 
Q 45.40625 37.75 41.375 43.109375 
Q 37.359375 48.484375 30.078125 48.484375 
Q 22.859375 48.484375 18.828125 43.109375 
Q 14.796875 37.75 14.796875 27.984375 
Q 14.796875 18.265625 18.828125 12.890625 
Q 22.859375 7.515625 30.078125 7.515625 
Q 37.359375 7.515625 41.375 12.890625 
Q 45.40625 18.265625 45.40625 27.984375 
z
M 54.390625 6.78125 
Q 54.390625 -7.171875 48.1875 -13.984375 
Q 42 -20.796875 29.203125 -20.796875 
Q 24.46875 -20.796875 20.265625 -20.09375 
Q 16.0625 -19.390625 12.109375 -17.921875 
L 12.109375 -9.1875 
Q 16.0625 -11.328125 19.921875 -12.34375 
Q 23.78125 -13.375 27.78125 -13.375 
Q 36.625 -13.375 41.015625 -8.765625 
Q 45.40625 -4.15625 45.40625 5.171875 
L 45.40625 9.625 
Q 42.625 4.78125 38.28125 2.390625 
Q 33.9375 0 27.875 0 
Q 17.828125 0 11.671875 7.65625 
Q 5.515625 15.328125 5.515625 27.984375 
Q 5.515625 40.671875 11.671875 48.328125 
Q 17.828125 56 27.875 56 
Q 33.9375 56 38.28125 53.609375 
Q 42.625 51.21875 45.40625 46.390625 
L 45.40625 54.6875 
L 54.390625 54.6875 
z
" id="DejaVuSans-103"/>
     </defs>
     <g transform="translate(346.09875 185.413374)scale(0.1 -0.1)">
      <use transform="translate(0 0.015625)" xlink:href="#DejaVuSans-108"/>
      <use transform="translate(27.783203 0.015625)" xlink:href="#DejaVuSans-111"/>
      <use transform="translate(88.964844 0.015625)" xlink:href="#DejaVuSans-103"/>
      <use transform="translate(153.398438 -16.390625)scale(0.7)" xlink:href="#DejaVuSans-49"/>
      <use transform="translate(197.93457 -16.390625)scale(0.7)" xlink:href="#DejaVuSans-48"/>
      <use transform="translate(245.205078 0.015625)" xlink:href="#DejaVuSans-Oblique-75"/>
      <use transform="translate(310.78125 -16.390625)scale(0.7)" xlink:href="#DejaVuSans-83"/>
     </g>
    </g>
   </g>
   <g id="matplotlib.axis_4">
    <g id="ytick_6">
     <g id="line2d_18">
      <g>
       <use style="stroke:#000000;stroke-width:0.8;" x="276.9975" xlink:href="#m078d223166" y="156.135249"/>
      </g>
     </g>
     <g id="text_21">
      <!-- 0 -->
      <g transform="translate(263.635 159.934468)scale(0.1 -0.1)">
       <use xlink:href="#DejaVuSans-48"/>
      </g>
     </g>
    </g>
    <g id="ytick_7">
     <g id="line2d_19">
      <g>
       <use style="stroke:#000000;stroke-width:0.8;" x="276.9975" xlink:href="#m078d223166" y="126.449269"/>
      </g>
     </g>
     <g id="text_22">
      <!-- 500 -->
      <g transform="translate(250.91 130.248487)scale(0.1 -0.1)">
       <use xlink:href="#DejaVuSans-53"/>
       <use x="63.623047" xlink:href="#DejaVuSans-48"/>
       <use x="127.246094" xlink:href="#DejaVuSans-48"/>
      </g>
     </g>
    </g>
    <g id="ytick_8">
     <g id="line2d_20">
      <g>
       <use style="stroke:#000000;stroke-width:0.8;" x="276.9975" xlink:href="#m078d223166" y="96.763288"/>
      </g>
     </g>
     <g id="text_23">
      <!-- 1000 -->
      <g transform="translate(244.5475 100.562507)scale(0.1 -0.1)">
       <use xlink:href="#DejaVuSans-49"/>
       <use x="63.623047" xlink:href="#DejaVuSans-48"/>
       <use x="127.246094" xlink:href="#DejaVuSans-48"/>
       <use x="190.869141" xlink:href="#DejaVuSans-48"/>
      </g>
     </g>
    </g>
    <g id="ytick_9">
     <g id="line2d_21">
      <g>
       <use style="stroke:#000000;stroke-width:0.8;" x="276.9975" xlink:href="#m078d223166" y="67.077308"/>
      </g>
     </g>
     <g id="text_24">
      <!-- 1500 -->
      <g transform="translate(244.5475 70.876526)scale(0.1 -0.1)">
       <use xlink:href="#DejaVuSans-49"/>
       <use x="63.623047" xlink:href="#DejaVuSans-53"/>
       <use x="127.246094" xlink:href="#DejaVuSans-48"/>
       <use x="190.869141" xlink:href="#DejaVuSans-48"/>
      </g>
     </g>
    </g>
   </g>
   <g id="patch_156">
    <path d="M 276.9975 156.135249 
L 276.9975 51.84 
" style="fill:none;stroke:#000000;stroke-linecap:square;stroke-linejoin:miter;stroke-width:0.8;"/>
   </g>
   <g id="patch_157">
    <path d="M 277.9975 157.135249 
L 450 157.135249 
" style="fill:none;stroke:#000000;stroke-linecap:square;stroke-linejoin:miter;stroke-width:0.8;"/>
   </g>
  </g>
  <g id="axes_3">
   <g id="patch_158">
    <path d="M 58.44 299.76 
L 230.4425 299.76 
L 230.4425 195.464751 
L 58.44 195.464751 
z
" style="fill:#ffffff;"/>
   </g>
   <g id="patch_159">
    <path clip-path="url(#pd06a44327c)" d="M 66.258295 299.76 
L 68.770198 299.76 
L 68.770198 270.586107 
L 66.258295 270.586107 
z
" style="fill:#808080;"/>
   </g>
   <g id="patch_160">
    <path clip-path="url(#pd06a44327c)" d="M 69.398173 299.76 
L 71.910075 299.76 
L 71.910075 299.76 
L 69.398173 299.76 
z
" style="fill:#808080;"/>
   </g>
   <g id="patch_161">
    <path clip-path="url(#pd06a44327c)" d="M 72.538051 299.76 
L 75.049953 299.76 
L 75.049953 299.76 
L 72.538051 299.76 
z
" style="fill:#808080;"/>
   </g>
   <g id="patch_162">
    <path clip-path="url(#pd06a44327c)" d="M 75.677929 299.76 
L 78.189831 299.76 
L 78.189831 290.047939 
L 75.677929 290.047939 
z
" style="fill:#808080;"/>
   </g>
   <g id="patch_163">
    <path clip-path="url(#pd06a44327c)" d="M 78.817806 299.76 
L 81.329708 299.76 
L 81.329708 295.558446 
L 78.817806 295.558446 
z
" style="fill:#808080;"/>
   </g>
   <g id="patch_164">
    <path clip-path="url(#pd06a44327c)" d="M 81.957684 299.76 
L 84.469586 299.76 
L 84.469586 299.76 
L 81.957684 299.76 
z
" style="fill:#808080;"/>
   </g>
   <g id="patch_165">
    <path clip-path="url(#pd06a44327c)" d="M 85.097562 299.76 
L 87.609464 299.76 
L 87.609464 295.270102 
L 85.097562 295.270102 
z
" style="fill:#808080;"/>
   </g>
   <g id="patch_166">
    <path clip-path="url(#pd06a44327c)" d="M 88.237439 299.76 
L 90.749341 299.76 
L 90.749341 297.400563 
L 88.237439 297.400563 
z
" style="fill:#808080;"/>
   </g>
   <g id="patch_167">
    <path clip-path="url(#pd06a44327c)" d="M 91.377317 299.76 
L 93.889219 299.76 
L 93.889219 297.893831 
L 91.377317 297.893831 
z
" style="fill:#808080;"/>
   </g>
   <g id="patch_168">
    <path clip-path="url(#pd06a44327c)" d="M 94.517195 299.76 
L 97.029097 299.76 
L 97.029097 295.374546 
L 94.517195 295.374546 
z
" style="fill:#808080;"/>
   </g>
   <g id="patch_169">
    <path clip-path="url(#pd06a44327c)" d="M 97.657072 299.76 
L 100.168975 299.76 
L 100.168975 296.454402 
L 97.657072 296.454402 
z
" style="fill:#808080;"/>
   </g>
   <g id="patch_170">
    <path clip-path="url(#pd06a44327c)" d="M 100.79695 299.76 
L 103.308852 299.76 
L 103.308852 295.672912 
L 100.79695 295.672912 
z
" style="fill:#808080;"/>
   </g>
   <g id="patch_171">
    <path clip-path="url(#pd06a44327c)" d="M 103.936828 299.76 
L 106.44873 299.76 
L 106.44873 292.906462 
L 103.936828 292.906462 
z
" style="fill:#808080;"/>
   </g>
   <g id="patch_172">
    <path clip-path="url(#pd06a44327c)" d="M 107.076705 299.76 
L 109.588608 299.76 
L 109.588608 285.491759 
L 107.076705 285.491759 
z
" style="fill:#808080;"/>
   </g>
   <g id="patch_173">
    <path clip-path="url(#pd06a44327c)" d="M 110.216583 299.76 
L 112.728485 299.76 
L 112.728485 282.742208 
L 110.216583 282.742208 
z
" style="fill:#808080;"/>
   </g>
   <g id="patch_174">
    <path clip-path="url(#pd06a44327c)" d="M 113.356461 299.76 
L 115.868363 299.76 
L 115.868363 273.342061 
L 113.356461 273.342061 
z
" style="fill:#808080;"/>
   </g>
   <g id="patch_175">
    <path clip-path="url(#pd06a44327c)" d="M 116.496339 299.76 
L 119.008241 299.76 
L 119.008241 259.497187 
L 116.496339 259.497187 
z
" style="fill:#808080;"/>
   </g>
   <g id="patch_176">
    <path clip-path="url(#pd06a44327c)" d="M 119.636216 299.76 
L 122.148118 299.76 
L 122.148118 256.49215 
L 119.636216 256.49215 
z
" style="fill:#808080;"/>
   </g>
   <g id="patch_177">
    <path clip-path="url(#pd06a44327c)" d="M 122.776094 299.76 
L 125.287996 299.76 
L 125.287996 242.369865 
L 122.776094 242.369865 
z
" style="fill:#808080;"/>
   </g>
   <g id="patch_178">
    <path clip-path="url(#pd06a44327c)" d="M 125.915972 299.76 
L 128.427874 299.76 
L 128.427874 217.165064 
L 125.915972 217.165064 
z
" style="fill:#808080;"/>
   </g>
   <g id="patch_179">
    <path clip-path="url(#pd06a44327c)" d="M 129.055849 299.76 
L 131.567751 299.76 
L 131.567751 214.387128 
L 129.055849 214.387128 
z
" style="fill:#808080;"/>
   </g>
   <g id="patch_180">
    <path clip-path="url(#pd06a44327c)" d="M 132.195727 299.76 
L 134.707629 299.76 
L 134.707629 200.431191 
L 132.195727 200.431191 
z
" style="fill:#808080;"/>
   </g>
   <g id="patch_181">
    <path clip-path="url(#pd06a44327c)" d="M 135.335605 299.76 
L 137.847507 299.76 
L 137.847507 207.320206 
L 135.335605 207.320206 
z
" style="fill:#808080;"/>
   </g>
   <g id="patch_182">
    <path clip-path="url(#pd06a44327c)" d="M 138.475482 299.76 
L 140.987385 299.76 
L 140.987385 211.45574 
L 138.475482 211.45574 
z
" style="fill:#808080;"/>
   </g>
   <g id="patch_183">
    <path clip-path="url(#pd06a44327c)" d="M 141.61536 299.76 
L 144.127262 299.76 
L 144.127262 222.042111 
L 141.61536 222.042111 
z
" style="fill:#808080;"/>
   </g>
   <g id="patch_184">
    <path clip-path="url(#pd06a44327c)" d="M 144.755238 299.76 
L 147.26714 299.76 
L 147.26714 234.34261 
L 144.755238 234.34261 
z
" style="fill:#808080;"/>
   </g>
   <g id="patch_185">
    <path clip-path="url(#pd06a44327c)" d="M 147.895115 299.76 
L 150.407018 299.76 
L 150.407018 237.631601 
L 147.895115 237.631601 
z
" style="fill:#808080;"/>
   </g>
   <g id="patch_186">
    <path clip-path="url(#pd06a44327c)" d="M 151.034993 299.76 
L 153.546895 299.76 
L 153.546895 239.056251 
L 151.034993 239.056251 
z
" style="fill:#808080;"/>
   </g>
   <g id="patch_187">
    <path clip-path="url(#pd06a44327c)" d="M 154.174871 299.76 
L 156.686773 299.76 
L 156.686773 237.373385 
L 154.174871 237.373385 
z
" style="fill:#808080;"/>
   </g>
   <g id="patch_188">
    <path clip-path="url(#pd06a44327c)" d="M 157.314749 299.76 
L 159.826651 299.76 
L 159.826651 229.682887 
L 157.314749 229.682887 
z
" style="fill:#808080;"/>
   </g>
   <g id="patch_189">
    <path clip-path="url(#pd06a44327c)" d="M 160.454626 299.76 
L 162.966528 299.76 
L 162.966528 225.724126 
L 160.454626 225.724126 
z
" style="fill:#808080;"/>
   </g>
   <g id="patch_190">
    <path clip-path="url(#pd06a44327c)" d="M 163.594504 299.76 
L 166.106406 299.76 
L 166.106406 223.65363 
L 163.594504 223.65363 
z
" style="fill:#808080;"/>
   </g>
   <g id="patch_191">
    <path clip-path="url(#pd06a44327c)" d="M 166.734382 299.76 
L 169.246284 299.76 
L 169.246284 227.665339 
L 166.734382 227.665339 
z
" style="fill:#808080;"/>
   </g>
   <g id="patch_192">
    <path clip-path="url(#pd06a44327c)" d="M 169.874259 299.76 
L 172.386161 299.76 
L 172.386161 230.898516 
L 169.874259 230.898516 
z
" style="fill:#808080;"/>
   </g>
   <g id="patch_193">
    <path clip-path="url(#pd06a44327c)" d="M 173.014137 299.76 
L 175.526039 299.76 
L 175.526039 238.49494 
L 173.014137 238.49494 
z
" style="fill:#808080;"/>
   </g>
   <g id="patch_194">
    <path clip-path="url(#pd06a44327c)" d="M 176.154015 299.76 
L 178.665917 299.76 
L 178.665917 248.230877 
L 176.154015 248.230877 
z
" style="fill:#808080;"/>
   </g>
   <g id="patch_195">
    <path clip-path="url(#pd06a44327c)" d="M 179.293892 299.76 
L 181.805795 299.76 
L 181.805795 257.038897 
L 179.293892 257.038897 
z
" style="fill:#808080;"/>
   </g>
   <g id="patch_196">
    <path clip-path="url(#pd06a44327c)" d="M 182.43377 299.76 
L 184.945672 299.76 
L 184.945672 268.140238 
L 182.43377 268.140238 
z
" style="fill:#808080;"/>
   </g>
   <g id="patch_197">
    <path clip-path="url(#pd06a44327c)" d="M 185.573648 299.76 
L 188.08555 299.76 
L 188.08555 280.844776 
L 185.573648 280.844776 
z
" style="fill:#808080;"/>
   </g>
   <g id="patch_198">
    <path clip-path="url(#pd06a44327c)" d="M 188.713525 299.76 
L 191.225428 299.76 
L 191.225428 291.58452 
L 188.713525 291.58452 
z
" style="fill:#808080;"/>
   </g>
   <g id="patch_199">
    <path clip-path="url(#pd06a44327c)" d="M 191.853403 299.76 
L 194.365305 299.76 
L 194.365305 296.12587 
L 191.853403 296.12587 
z
" style="fill:#808080;"/>
   </g>
   <g id="patch_200">
    <path clip-path="url(#pd06a44327c)" d="M 194.993281 299.76 
L 197.505183 299.76 
L 197.505183 297.621469 
L 194.993281 297.621469 
z
" style="fill:#808080;"/>
   </g>
   <g id="patch_201">
    <path clip-path="url(#pd06a44327c)" d="M 198.133159 299.76 
L 200.645061 299.76 
L 200.645061 298.390714 
L 198.133159 298.390714 
z
" style="fill:#808080;"/>
   </g>
   <g id="patch_202">
    <path clip-path="url(#pd06a44327c)" d="M 201.273036 299.76 
L 203.784938 299.76 
L 203.784938 298.852163 
L 201.273036 298.852163 
z
" style="fill:#808080;"/>
   </g>
   <g id="patch_203">
    <path clip-path="url(#pd06a44327c)" d="M 204.412914 299.76 
L 206.924816 299.76 
L 206.924816 299.331767 
L 204.412914 299.331767 
z
" style="fill:#808080;"/>
   </g>
   <g id="patch_204">
    <path clip-path="url(#pd06a44327c)" d="M 207.552792 299.76 
L 210.064694 299.76 
L 210.064694 299.243457 
L 207.552792 299.243457 
z
" style="fill:#808080;"/>
   </g>
   <g id="patch_205">
    <path clip-path="url(#pd06a44327c)" d="M 210.692669 299.76 
L 213.204571 299.76 
L 213.204571 299.245354 
L 210.692669 299.245354 
z
" style="fill:#808080;"/>
   </g>
   <g id="patch_206">
    <path clip-path="url(#pd06a44327c)" d="M 213.832547 299.76 
L 216.344449 299.76 
L 216.344449 299.329417 
L 213.832547 299.329417 
z
" style="fill:#808080;"/>
   </g>
   <g id="patch_207">
    <path clip-path="url(#pd06a44327c)" d="M 216.972425 299.76 
L 219.484327 299.76 
L 219.484327 299.192952 
L 216.972425 299.192952 
z
" style="fill:#808080;"/>
   </g>
   <g id="patch_208">
    <path clip-path="url(#pd06a44327c)" d="M 220.112302 299.76 
L 222.624205 299.76 
L 222.624205 299.291857 
L 220.112302 299.291857 
z
" style="fill:#808080;"/>
   </g>
   <g id="matplotlib.axis_5">
    <g id="xtick_13">
     <g id="line2d_22">
      <g>
       <use style="stroke:#000000;stroke-width:0.8;" x="65.944308" xlink:href="#m52383dd5d4" y="300.76"/>
      </g>
     </g>
     <g id="text_25">
      <!-- 4 -->
      <g transform="translate(58.573214 315.358437)scale(0.1 -0.1)">
       <use xlink:href="#DejaVuSans-8722"/>
       <use x="83.789062" xlink:href="#DejaVuSans-52"/>
      </g>
     </g>
    </g>
    <g id="xtick_14">
     <g id="line2d_23">
      <g>
       <use style="stroke:#000000;stroke-width:0.8;" x="97.343085" xlink:href="#m52383dd5d4" y="300.76"/>
      </g>
     </g>
     <g id="text_26">
      <!-- 3 -->
      <g transform="translate(89.971991 315.358437)scale(0.1 -0.1)">
       <use xlink:href="#DejaVuSans-8722"/>
       <use x="83.789062" xlink:href="#DejaVuSans-51"/>
      </g>
     </g>
    </g>
    <g id="xtick_15">
     <g id="line2d_24">
      <g>
       <use style="stroke:#000000;stroke-width:0.8;" x="128.741862" xlink:href="#m52383dd5d4" y="300.76"/>
      </g>
     </g>
     <g id="text_27">
      <!-- 2 -->
      <g transform="translate(121.370768 315.358437)scale(0.1 -0.1)">
       <use xlink:href="#DejaVuSans-8722"/>
       <use x="83.789062" xlink:href="#DejaVuSans-50"/>
      </g>
     </g>
    </g>
    <g id="xtick_16">
     <g id="line2d_25">
      <g>
       <use style="stroke:#000000;stroke-width:0.8;" x="160.140638" xlink:href="#m52383dd5d4" y="300.76"/>
      </g>
     </g>
     <g id="text_28">
      <!-- 1 -->
      <g transform="translate(152.769545 315.358437)scale(0.1 -0.1)">
       <use xlink:href="#DejaVuSans-8722"/>
       <use x="83.789062" xlink:href="#DejaVuSans-49"/>
      </g>
     </g>
    </g>
    <g id="xtick_17">
     <g id="line2d_26">
      <g>
       <use style="stroke:#000000;stroke-width:0.8;" x="191.539415" xlink:href="#m52383dd5d4" y="300.76"/>
      </g>
     </g>
     <g id="text_29">
      <!-- 0 -->
      <g transform="translate(188.358165 315.358437)scale(0.1 -0.1)">
       <use xlink:href="#DejaVuSans-48"/>
      </g>
     </g>
    </g>
    <g id="xtick_18">
     <g id="line2d_27">
      <g>
       <use style="stroke:#000000;stroke-width:0.8;" x="222.938192" xlink:href="#m52383dd5d4" y="300.76"/>
      </g>
     </g>
     <g id="text_30">
      <!-- 1 -->
      <g transform="translate(219.756942 315.358437)scale(0.1 -0.1)">
       <use xlink:href="#DejaVuSans-49"/>
      </g>
     </g>
    </g>
    <g id="text_31">
     <!-- $\log_{10}K_\mathrm{A}$ -->
     <defs>
      <path d="M 34.1875 63.1875 
L 20.796875 26.90625 
L 47.609375 26.90625 
z
M 28.609375 72.90625 
L 39.796875 72.90625 
L 67.578125 0 
L 57.328125 0 
L 50.6875 18.703125 
L 17.828125 18.703125 
L 11.1875 0 
L 0.78125 0 
z
" id="DejaVuSans-65"/>
     </defs>
     <g transform="translate(126.34125 329.038125)scale(0.1 -0.1)">
      <use transform="translate(0 0.015625)" xlink:href="#DejaVuSans-108"/>
      <use transform="translate(27.783203 0.015625)" xlink:href="#DejaVuSans-111"/>
      <use transform="translate(88.964844 0.015625)" xlink:href="#DejaVuSans-103"/>
      <use transform="translate(153.398438 -16.390625)scale(0.7)" xlink:href="#DejaVuSans-49"/>
      <use transform="translate(197.93457 -16.390625)scale(0.7)" xlink:href="#DejaVuSans-48"/>
      <use transform="translate(245.205078 0.015625)" xlink:href="#DejaVuSans-Oblique-75"/>
      <use transform="translate(310.78125 -16.390625)scale(0.7)" xlink:href="#DejaVuSans-65"/>
     </g>
    </g>
   </g>
   <g id="matplotlib.axis_6">
    <g id="ytick_10">
     <g id="line2d_28">
      <g>
       <use style="stroke:#000000;stroke-width:0.8;" x="57.44" xlink:href="#m078d223166" y="299.76"/>
      </g>
     </g>
     <g id="text_32">
      <!-- 0 -->
      <g transform="translate(44.0775 303.559219)scale(0.1 -0.1)">
       <use xlink:href="#DejaVuSans-48"/>
      </g>
     </g>
    </g>
    <g id="ytick_11">
     <g id="line2d_29">
      <g>
       <use style="stroke:#000000;stroke-width:0.8;" x="57.44" xlink:href="#m078d223166" y="268.744491"/>
      </g>
     </g>
     <g id="text_33">
      <!-- 500 -->
      <g transform="translate(31.3525 272.54371)scale(0.1 -0.1)">
       <use xlink:href="#DejaVuSans-53"/>
       <use x="63.623047" xlink:href="#DejaVuSans-48"/>
       <use x="127.246094" xlink:href="#DejaVuSans-48"/>
      </g>
     </g>
    </g>
    <g id="ytick_12">
     <g id="line2d_30">
      <g>
       <use style="stroke:#000000;stroke-width:0.8;" x="57.44" xlink:href="#m078d223166" y="237.728982"/>
      </g>
     </g>
     <g id="text_34">
      <!-- 1000 -->
      <g transform="translate(24.99 241.528201)scale(0.1 -0.1)">
       <use xlink:href="#DejaVuSans-49"/>
       <use x="63.623047" xlink:href="#DejaVuSans-48"/>
       <use x="127.246094" xlink:href="#DejaVuSans-48"/>
       <use x="190.869141" xlink:href="#DejaVuSans-48"/>
      </g>
     </g>
    </g>
    <g id="ytick_13">
     <g id="line2d_31">
      <g>
       <use style="stroke:#000000;stroke-width:0.8;" x="57.44" xlink:href="#m078d223166" y="206.713473"/>
      </g>
     </g>
     <g id="text_35">
      <!-- 1500 -->
      <g transform="translate(24.99 210.512692)scale(0.1 -0.1)">
       <use xlink:href="#DejaVuSans-49"/>
       <use x="63.623047" xlink:href="#DejaVuSans-53"/>
       <use x="127.246094" xlink:href="#DejaVuSans-48"/>
       <use x="190.869141" xlink:href="#DejaVuSans-48"/>
      </g>
     </g>
    </g>
    <g id="text_36">
     <!-- Duplications -->
     <g transform="translate(18.910312 278.578782)rotate(-90)scale(0.1 -0.1)">
      <use xlink:href="#DejaVuSans-68"/>
      <use x="77.001953" xlink:href="#DejaVuSans-117"/>
      <use x="140.380859" xlink:href="#DejaVuSans-112"/>
      <use x="203.857422" xlink:href="#DejaVuSans-108"/>
      <use x="231.640625" xlink:href="#DejaVuSans-105"/>
      <use x="259.423828" xlink:href="#DejaVuSans-99"/>
      <use x="314.404297" xlink:href="#DejaVuSans-97"/>
      <use x="375.683594" xlink:href="#DejaVuSans-116"/>
      <use x="414.892578" xlink:href="#DejaVuSans-105"/>
      <use x="442.675781" xlink:href="#DejaVuSans-111"/>
      <use x="503.857422" xlink:href="#DejaVuSans-110"/>
      <use x="567.236328" xlink:href="#DejaVuSans-115"/>
     </g>
    </g>
   </g>
   <g id="patch_209">
    <path d="M 57.44 299.76 
L 57.44 195.464751 
" style="fill:none;stroke:#000000;stroke-linecap:square;stroke-linejoin:miter;stroke-width:0.8;"/>
   </g>
   <g id="patch_210">
    <path d="M 58.44 300.76 
L 230.4425 300.76 
" style="fill:none;stroke:#000000;stroke-linecap:square;stroke-linejoin:miter;stroke-width:0.8;"/>
   </g>
  </g>
  <g id="axes_4">
   <g id="patch_211">
    <path d="M 277.9975 299.76 
L 450 299.76 
L 450 195.464751 
L 277.9975 195.464751 
z
" style="fill:#ffffff;"/>
   </g>
   <g id="patch_212">
    <path clip-path="url(#pf5bdd363bf)" d="M 285.815795 299.76 
L 288.327698 299.76 
L 288.327698 299.76 
L 285.815795 299.76 
z
" style="fill:#808080;"/>
   </g>
   <g id="patch_213">
    <path clip-path="url(#pf5bdd363bf)" d="M 288.955673 299.76 
L 291.467575 299.76 
L 291.467575 299.76 
L 288.955673 299.76 
z
" style="fill:#808080;"/>
   </g>
   <g id="patch_214">
    <path clip-path="url(#pf5bdd363bf)" d="M 292.095551 299.76 
L 294.607453 299.76 
L 294.607453 299.76 
L 292.095551 299.76 
z
" style="fill:#808080;"/>
   </g>
   <g id="patch_215">
    <path clip-path="url(#pf5bdd363bf)" d="M 295.235429 299.76 
L 297.747331 299.76 
L 297.747331 299.76 
L 295.235429 299.76 
z
" style="fill:#808080;"/>
   </g>
   <g id="patch_216">
    <path clip-path="url(#pf5bdd363bf)" d="M 298.375306 299.76 
L 300.887208 299.76 
L 300.887208 299.76 
L 298.375306 299.76 
z
" style="fill:#808080;"/>
   </g>
   <g id="patch_217">
    <path clip-path="url(#pf5bdd363bf)" d="M 301.515184 299.76 
L 304.027086 299.76 
L 304.027086 299.76 
L 301.515184 299.76 
z
" style="fill:#808080;"/>
   </g>
   <g id="patch_218">
    <path clip-path="url(#pf5bdd363bf)" d="M 304.655062 299.76 
L 307.166964 299.76 
L 307.166964 299.76 
L 304.655062 299.76 
z
" style="fill:#808080;"/>
   </g>
   <g id="patch_219">
    <path clip-path="url(#pf5bdd363bf)" d="M 307.794939 299.76 
L 310.306841 299.76 
L 310.306841 299.76 
L 307.794939 299.76 
z
" style="fill:#808080;"/>
   </g>
   <g id="patch_220">
    <path clip-path="url(#pf5bdd363bf)" d="M 310.934817 299.76 
L 313.446719 299.76 
L 313.446719 299.76 
L 310.934817 299.76 
z
" style="fill:#808080;"/>
   </g>
   <g id="patch_221">
    <path clip-path="url(#pf5bdd363bf)" d="M 314.074695 299.76 
L 316.586597 299.76 
L 316.586597 247.325091 
L 314.074695 247.325091 
z
" style="fill:#808080;"/>
   </g>
   <g id="patch_222">
    <path clip-path="url(#pf5bdd363bf)" d="M 317.214572 299.76 
L 319.726475 299.76 
L 319.726475 299.743683 
L 317.214572 299.743683 
z
" style="fill:#808080;"/>
   </g>
   <g id="patch_223">
    <path clip-path="url(#pf5bdd363bf)" d="M 320.35445 299.76 
L 322.866352 299.76 
L 322.866352 299.692366 
L 320.35445 299.692366 
z
" style="fill:#808080;"/>
   </g>
   <g id="patch_224">
    <path clip-path="url(#pf5bdd363bf)" d="M 323.494328 299.76 
L 326.00623 299.76 
L 326.00623 299.56955 
L 323.494328 299.56955 
z
" style="fill:#808080;"/>
   </g>
   <g id="patch_225">
    <path clip-path="url(#pf5bdd363bf)" d="M 326.634205 299.76 
L 329.146108 299.76 
L 329.146108 299.38111 
L 326.634205 299.38111 
z
" style="fill:#808080;"/>
   </g>
   <g id="patch_226">
    <path clip-path="url(#pf5bdd363bf)" d="M 329.774083 299.76 
L 332.285985 299.76 
L 332.285985 299.32144 
L 329.774083 299.32144 
z
" style="fill:#808080;"/>
   </g>
   <g id="patch_227">
    <path clip-path="url(#pf5bdd363bf)" d="M 332.913961 299.76 
L 335.425863 299.76 
L 335.425863 299.329907 
L 332.913961 299.329907 
z
" style="fill:#808080;"/>
   </g>
   <g id="patch_228">
    <path clip-path="url(#pf5bdd363bf)" d="M 336.053839 299.76 
L 338.565741 299.76 
L 338.565741 299.081203 
L 336.053839 299.081203 
z
" style="fill:#808080;"/>
   </g>
   <g id="patch_229">
    <path clip-path="url(#pf5bdd363bf)" d="M 339.193716 299.76 
L 341.705618 299.76 
L 341.705618 298.516203 
L 339.193716 298.516203 
z
" style="fill:#808080;"/>
   </g>
   <g id="patch_230">
    <path clip-path="url(#pf5bdd363bf)" d="M 342.333594 299.76 
L 344.845496 299.76 
L 344.845496 298.469827 
L 342.333594 298.469827 
z
" style="fill:#808080;"/>
   </g>
   <g id="patch_231">
    <path clip-path="url(#pf5bdd363bf)" d="M 345.473472 299.76 
L 347.985374 299.76 
L 347.985374 297.050455 
L 345.473472 297.050455 
z
" style="fill:#808080;"/>
   </g>
   <g id="patch_232">
    <path clip-path="url(#pf5bdd363bf)" d="M 348.613349 299.76 
L 351.125251 299.76 
L 351.125251 296.646159 
L 348.613349 296.646159 
z
" style="fill:#808080;"/>
   </g>
   <g id="patch_233">
    <path clip-path="url(#pf5bdd363bf)" d="M 351.753227 299.76 
L 354.265129 299.76 
L 354.265129 295.113032 
L 351.753227 295.113032 
z
" style="fill:#808080;"/>
   </g>
   <g id="patch_234">
    <path clip-path="url(#pf5bdd363bf)" d="M 354.893105 299.76 
L 357.405007 299.76 
L 357.405007 293.991866 
L 354.893105 293.991866 
z
" style="fill:#808080;"/>
   </g>
   <g id="patch_235">
    <path clip-path="url(#pf5bdd363bf)" d="M 358.032982 299.76 
L 360.544885 299.76 
L 360.544885 290.62367 
L 358.032982 290.62367 
z
" style="fill:#808080;"/>
   </g>
   <g id="patch_236">
    <path clip-path="url(#pf5bdd363bf)" d="M 361.17286 299.76 
L 363.684762 299.76 
L 363.684762 285.366413 
L 361.17286 285.366413 
z
" style="fill:#808080;"/>
   </g>
   <g id="patch_237">
    <path clip-path="url(#pf5bdd363bf)" d="M 364.312738 299.76 
L 366.82464 299.76 
L 366.82464 280.393977 
L 364.312738 280.393977 
z
" style="fill:#808080;"/>
   </g>
   <g id="patch_238">
    <path clip-path="url(#pf5bdd363bf)" d="M 367.452615 299.76 
L 369.964518 299.76 
L 369.964518 270.070697 
L 367.452615 270.070697 
z
" style="fill:#808080;"/>
   </g>
   <g id="patch_239">
    <path clip-path="url(#pf5bdd363bf)" d="M 370.592493 299.76 
L 373.104395 299.76 
L 373.104395 260.286691 
L 370.592493 260.286691 
z
" style="fill:#808080;"/>
   </g>
   <g id="patch_240">
    <path clip-path="url(#pf5bdd363bf)" d="M 373.732371 299.76 
L 376.244273 299.76 
L 376.244273 245.219421 
L 373.732371 245.219421 
z
" style="fill:#808080;"/>
   </g>
   <g id="patch_241">
    <path clip-path="url(#pf5bdd363bf)" d="M 376.872249 299.76 
L 379.384151 299.76 
L 379.384151 229.801361 
L 376.872249 229.801361 
z
" style="fill:#808080;"/>
   </g>
   <g id="patch_242">
    <path clip-path="url(#pf5bdd363bf)" d="M 380.012126 299.76 
L 382.524028 299.76 
L 382.524028 215.19739 
L 380.012126 215.19739 
z
" style="fill:#808080;"/>
   </g>
   <g id="patch_243">
    <path clip-path="url(#pf5bdd363bf)" d="M 383.152004 299.76 
L 385.663906 299.76 
L 385.663906 205.684821 
L 383.152004 205.684821 
z
" style="fill:#808080;"/>
   </g>
   <g id="patch_244">
    <path clip-path="url(#pf5bdd363bf)" d="M 386.291882 299.76 
L 388.803784 299.76 
L 388.803784 200.431191 
L 386.291882 200.431191 
z
" style="fill:#808080;"/>
   </g>
   <g id="patch_245">
    <path clip-path="url(#pf5bdd363bf)" d="M 389.431759 299.76 
L 391.943661 299.76 
L 391.943661 209.580577 
L 389.431759 209.580577 
z
" style="fill:#808080;"/>
   </g>
   <g id="patch_246">
    <path clip-path="url(#pf5bdd363bf)" d="M 392.571637 299.76 
L 395.083539 299.76 
L 395.083539 220.040194 
L 392.571637 220.040194 
z
" style="fill:#808080;"/>
   </g>
   <g id="patch_247">
    <path clip-path="url(#pf5bdd363bf)" d="M 395.711515 299.76 
L 398.223417 299.76 
L 398.223417 236.229063 
L 395.711515 236.229063 
z
" style="fill:#808080;"/>
   </g>
   <g id="patch_248">
    <path clip-path="url(#pf5bdd363bf)" d="M 398.851392 299.76 
L 401.363295 299.76 
L 401.363295 252.805102 
L 398.851392 252.805102 
z
" style="fill:#808080;"/>
   </g>
   <g id="patch_249">
    <path clip-path="url(#pf5bdd363bf)" d="M 401.99127 299.76 
L 404.503172 299.76 
L 404.503172 268.370777 
L 401.99127 268.370777 
z
" style="fill:#808080;"/>
   </g>
   <g id="patch_250">
    <path clip-path="url(#pf5bdd363bf)" d="M 405.131148 299.76 
L 407.64305 299.76 
L 407.64305 279.809103 
L 405.131148 279.809103 
z
" style="fill:#808080;"/>
   </g>
   <g id="patch_251">
    <path clip-path="url(#pf5bdd363bf)" d="M 408.271025 299.76 
L 410.782928 299.76 
L 410.782928 287.903392 
L 408.271025 287.903392 
z
" style="fill:#808080;"/>
   </g>
   <g id="patch_252">
    <path clip-path="url(#pf5bdd363bf)" d="M 411.410903 299.76 
L 413.922805 299.76 
L 413.922805 292.918438 
L 411.410903 292.918438 
z
" style="fill:#808080;"/>
   </g>
   <g id="patch_253">
    <path clip-path="url(#pf5bdd363bf)" d="M 414.550781 299.76 
L 417.062683 299.76 
L 417.062683 295.429812 
L 414.550781 295.429812 
z
" style="fill:#808080;"/>
   </g>
   <g id="patch_254">
    <path clip-path="url(#pf5bdd363bf)" d="M 417.690659 299.76 
L 420.202561 299.76 
L 420.202561 297.412194 
L 417.690659 297.412194 
z
" style="fill:#808080;"/>
   </g>
   <g id="patch_255">
    <path clip-path="url(#pf5bdd363bf)" d="M 420.830536 299.76 
L 423.342438 299.76 
L 423.342438 298.225777 
L 420.830536 298.225777 
z
" style="fill:#808080;"/>
   </g>
   <g id="patch_256">
    <path clip-path="url(#pf5bdd363bf)" d="M 423.970414 299.76 
L 426.482316 299.76 
L 426.482316 299.132398 
L 423.970414 299.132398 
z
" style="fill:#808080;"/>
   </g>
   <g id="patch_257">
    <path clip-path="url(#pf5bdd363bf)" d="M 427.110292 299.76 
L 429.622194 299.76 
L 429.622194 299.256109 
L 427.110292 299.256109 
z
" style="fill:#808080;"/>
   </g>
   <g id="patch_258">
    <path clip-path="url(#pf5bdd363bf)" d="M 430.250169 299.76 
L 432.762071 299.76 
L 432.762071 299.413503 
L 430.250169 299.413503 
z
" style="fill:#808080;"/>
   </g>
   <g id="patch_259">
    <path clip-path="url(#pf5bdd363bf)" d="M 433.390047 299.76 
L 435.901949 299.76 
L 435.901949 299.446119 
L 433.390047 299.446119 
z
" style="fill:#808080;"/>
   </g>
   <g id="patch_260">
    <path clip-path="url(#pf5bdd363bf)" d="M 436.529925 299.76 
L 439.041827 299.76 
L 439.041827 299.209219 
L 436.529925 299.209219 
z
" style="fill:#808080;"/>
   </g>
   <g id="patch_261">
    <path clip-path="url(#pf5bdd363bf)" d="M 439.669802 299.76 
L 442.181705 299.76 
L 442.181705 299.430611 
L 439.669802 299.430611 
z
" style="fill:#808080;"/>
   </g>
   <g id="matplotlib.axis_7">
    <g id="xtick_19">
     <g id="line2d_32">
      <g>
       <use style="stroke:#000000;stroke-width:0.8;" x="285.501808" xlink:href="#m52383dd5d4" y="300.76"/>
      </g>
     </g>
     <g id="text_37">
      <!-- 4 -->
      <g transform="translate(278.130714 315.358437)scale(0.1 -0.1)">
       <use xlink:href="#DejaVuSans-8722"/>
       <use x="83.789062" xlink:href="#DejaVuSans-52"/>
      </g>
     </g>
    </g>
    <g id="xtick_20">
     <g id="line2d_33">
      <g>
       <use style="stroke:#000000;stroke-width:0.8;" x="348.299362" xlink:href="#m52383dd5d4" y="300.76"/>
      </g>
     </g>
     <g id="text_38">
      <!-- 2 -->
      <g transform="translate(340.928268 315.358437)scale(0.1 -0.1)">
       <use xlink:href="#DejaVuSans-8722"/>
       <use x="83.789062" xlink:href="#DejaVuSans-50"/>
      </g>
     </g>
    </g>
    <g id="xtick_21">
     <g id="line2d_34">
      <g>
       <use style="stroke:#000000;stroke-width:0.8;" x="411.096915" xlink:href="#m52383dd5d4" y="300.76"/>
      </g>
     </g>
     <g id="text_39">
      <!-- 0 -->
      <g transform="translate(407.915665 315.358437)scale(0.1 -0.1)">
       <use xlink:href="#DejaVuSans-48"/>
      </g>
     </g>
    </g>
    <g id="text_40">
     <!-- $\log_{10}\omega$ -->
     <defs>
      <path d="M 21.390625 -1.421875 
Q 1.125 -1.421875 6.78125 27.59375 
Q 8.984375 39.0625 19.625 54.6875 
L 29.296875 54.6875 
Q 19.234375 39.0625 17 27.34375 
Q 12.796875 6.203125 23.734375 6.203125 
Q 33.84375 6.203125 38.71875 32.46875 
L 47.015625 32.46875 
Q 41.703125 6.0625 51.8125 6.203125 
Q 62.703125 6.296875 66.796875 27.34375 
Q 69.046875 39.0625 65.140625 54.6875 
L 74.8125 54.6875 
Q 79.296875 39.0625 77.09375 27.59375 
Q 71.53125 -1.46875 51.21875 -1.421875 
Q 37.9375 -1.375 39.109375 13.1875 
Q 34.28125 -1.421875 21.390625 -1.421875 
z
" id="DejaVuSans-Oblique-969"/>
     </defs>
     <g transform="translate(347.54875 329.038125)scale(0.1 -0.1)">
      <use transform="translate(0 0.015625)" xlink:href="#DejaVuSans-108"/>
      <use transform="translate(27.783203 0.015625)" xlink:href="#DejaVuSans-111"/>
      <use transform="translate(88.964844 0.015625)" xlink:href="#DejaVuSans-103"/>
      <use transform="translate(153.398438 -16.390625)scale(0.7)" xlink:href="#DejaVuSans-49"/>
      <use transform="translate(197.93457 -16.390625)scale(0.7)" xlink:href="#DejaVuSans-48"/>
      <use transform="translate(245.205078 0.015625)" xlink:href="#DejaVuSans-Oblique-969"/>
     </g>
    </g>
   </g>
   <g id="matplotlib.axis_8">
    <g id="ytick_14">
     <g id="line2d_35">
      <g>
       <use style="stroke:#000000;stroke-width:0.8;" x="276.9975" xlink:href="#m078d223166" y="299.76"/>
      </g>
     </g>
     <g id="text_41">
      <!-- 0 -->
      <g transform="translate(263.635 303.559219)scale(0.1 -0.1)">
       <use xlink:href="#DejaVuSans-48"/>
      </g>
     </g>
    </g>
    <g id="ytick_15">
     <g id="line2d_36">
      <g>
       <use style="stroke:#000000;stroke-width:0.8;" x="276.9975" xlink:href="#m078d223166" y="263.876677"/>
      </g>
     </g>
     <g id="text_42">
      <!-- 1000 -->
      <g transform="translate(244.5475 267.675895)scale(0.1 -0.1)">
       <use xlink:href="#DejaVuSans-49"/>
       <use x="63.623047" xlink:href="#DejaVuSans-48"/>
       <use x="127.246094" xlink:href="#DejaVuSans-48"/>
       <use x="190.869141" xlink:href="#DejaVuSans-48"/>
      </g>
     </g>
    </g>
    <g id="ytick_16">
     <g id="line2d_37">
      <g>
       <use style="stroke:#000000;stroke-width:0.8;" x="276.9975" xlink:href="#m078d223166" y="227.993353"/>
      </g>
     </g>
     <g id="text_43">
      <!-- 2000 -->
      <g transform="translate(244.5475 231.792572)scale(0.1 -0.1)">
       <use xlink:href="#DejaVuSans-50"/>
       <use x="63.623047" xlink:href="#DejaVuSans-48"/>
       <use x="127.246094" xlink:href="#DejaVuSans-48"/>
       <use x="190.869141" xlink:href="#DejaVuSans-48"/>
      </g>
     </g>
    </g>
   </g>
   <g id="patch_262">
    <path d="M 276.9975 299.76 
L 276.9975 195.464751 
" style="fill:none;stroke:#000000;stroke-linecap:square;stroke-linejoin:miter;stroke-width:0.8;"/>
   </g>
   <g id="patch_263">
    <path d="M 277.9975 300.76 
L 450 300.76 
" style="fill:none;stroke:#000000;stroke-linecap:square;stroke-linejoin:miter;stroke-width:0.8;"/>
   </g>
  </g>
  <g id="text_44">
   <!-- splicedCDS.filter.fasta.tsv -->
   <defs>
    <path d="M 56.203125 29.59375 
L 56.203125 25.203125 
L 14.890625 25.203125 
Q 15.484375 15.921875 20.484375 11.0625 
Q 25.484375 6.203125 34.421875 6.203125 
Q 39.59375 6.203125 44.453125 7.46875 
Q 49.3125 8.734375 54.109375 11.28125 
L 54.109375 2.78125 
Q 49.265625 0.734375 44.1875 -0.34375 
Q 39.109375 -1.421875 33.890625 -1.421875 
Q 20.796875 -1.421875 13.15625 6.1875 
Q 5.515625 13.8125 5.515625 26.8125 
Q 5.515625 40.234375 12.765625 48.109375 
Q 20.015625 56 32.328125 56 
Q 43.359375 56 49.78125 48.890625 
Q 56.203125 41.796875 56.203125 29.59375 
z
M 47.21875 32.234375 
Q 47.125 39.59375 43.09375 43.984375 
Q 39.0625 48.390625 32.421875 48.390625 
Q 24.90625 48.390625 20.390625 44.140625 
Q 15.875 39.890625 15.1875 32.171875 
z
" id="DejaVuSans-101"/>
    <path d="M 45.40625 46.390625 
L 45.40625 75.984375 
L 54.390625 75.984375 
L 54.390625 0 
L 45.40625 0 
L 45.40625 8.203125 
Q 42.578125 3.328125 38.25 0.953125 
Q 33.9375 -1.421875 27.875 -1.421875 
Q 17.96875 -1.421875 11.734375 6.484375 
Q 5.515625 14.40625 5.515625 27.296875 
Q 5.515625 40.1875 11.734375 48.09375 
Q 17.96875 56 27.875 56 
Q 33.9375 56 38.25 53.625 
Q 42.578125 51.265625 45.40625 46.390625 
z
M 14.796875 27.296875 
Q 14.796875 17.390625 18.875 11.75 
Q 22.953125 6.109375 30.078125 6.109375 
Q 37.203125 6.109375 41.296875 11.75 
Q 45.40625 17.390625 45.40625 27.296875 
Q 45.40625 37.203125 41.296875 42.84375 
Q 37.203125 48.484375 30.078125 48.484375 
Q 22.953125 48.484375 18.875 42.84375 
Q 14.796875 37.203125 14.796875 27.296875 
z
" id="DejaVuSans-100"/>
    <path d="M 64.40625 67.28125 
L 64.40625 56.890625 
Q 59.421875 61.53125 53.78125 63.8125 
Q 48.140625 66.109375 41.796875 66.109375 
Q 29.296875 66.109375 22.65625 58.46875 
Q 16.015625 50.828125 16.015625 36.375 
Q 16.015625 21.96875 22.65625 14.328125 
Q 29.296875 6.6875 41.796875 6.6875 
Q 48.140625 6.6875 53.78125 8.984375 
Q 59.421875 11.28125 64.40625 15.921875 
L 64.40625 5.609375 
Q 59.234375 2.09375 53.4375 0.328125 
Q 47.65625 -1.421875 41.21875 -1.421875 
Q 24.65625 -1.421875 15.125 8.703125 
Q 5.609375 18.84375 5.609375 36.375 
Q 5.609375 53.953125 15.125 64.078125 
Q 24.65625 74.21875 41.21875 74.21875 
Q 47.75 74.21875 53.53125 72.484375 
Q 59.328125 70.75 64.40625 67.28125 
z
" id="DejaVuSans-67"/>
    <path d="M 10.6875 12.40625 
L 21 12.40625 
L 21 0 
L 10.6875 0 
z
" id="DejaVuSans-46"/>
    <path d="M 37.109375 75.984375 
L 37.109375 68.5 
L 28.515625 68.5 
Q 23.6875 68.5 21.796875 66.546875 
Q 19.921875 64.59375 19.921875 59.515625 
L 19.921875 54.6875 
L 34.71875 54.6875 
L 34.71875 47.703125 
L 19.921875 47.703125 
L 19.921875 0 
L 10.890625 0 
L 10.890625 47.703125 
L 2.296875 47.703125 
L 2.296875 54.6875 
L 10.890625 54.6875 
L 10.890625 58.5 
Q 10.890625 67.625 15.140625 71.796875 
Q 19.390625 75.984375 28.609375 75.984375 
z
" id="DejaVuSans-102"/>
    <path d="M 41.109375 46.296875 
Q 39.59375 47.171875 37.8125 47.578125 
Q 36.03125 48 33.890625 48 
Q 26.265625 48 22.1875 43.046875 
Q 18.109375 38.09375 18.109375 28.8125 
L 18.109375 0 
L 9.078125 0 
L 9.078125 54.6875 
L 18.109375 54.6875 
L 18.109375 46.1875 
Q 20.953125 51.171875 25.484375 53.578125 
Q 30.03125 56 36.53125 56 
Q 37.453125 56 38.578125 55.875 
Q 39.703125 55.765625 41.0625 55.515625 
z
" id="DejaVuSans-114"/>
    <path d="M 2.984375 54.6875 
L 12.5 54.6875 
L 29.59375 8.796875 
L 46.6875 54.6875 
L 56.203125 54.6875 
L 35.6875 0 
L 23.484375 0 
z
" id="DejaVuSans-118"/>
   </defs>
   <g transform="translate(57.6 43.678125)scale(0.12 -0.12)">
    <use xlink:href="#DejaVuSans-115"/>
    <use x="52.099609" xlink:href="#DejaVuSans-112"/>
    <use x="115.576172" xlink:href="#DejaVuSans-108"/>
    <use x="143.359375" xlink:href="#DejaVuSans-105"/>
    <use x="171.142578" xlink:href="#DejaVuSans-99"/>
    <use x="226.123047" xlink:href="#DejaVuSans-101"/>
    <use x="287.646484" xlink:href="#DejaVuSans-100"/>
    <use x="351.123047" xlink:href="#DejaVuSans-67"/>
    <use x="420.947266" xlink:href="#DejaVuSans-68"/>
    <use x="497.949219" xlink:href="#DejaVuSans-83"/>
    <use x="561.425781" xlink:href="#DejaVuSans-46"/>
    <use x="593.212891" xlink:href="#DejaVuSans-102"/>
    <use x="628.417969" xlink:href="#DejaVuSans-105"/>
    <use x="656.201172" xlink:href="#DejaVuSans-108"/>
    <use x="683.984375" xlink:href="#DejaVuSans-116"/>
    <use x="723.193359" xlink:href="#DejaVuSans-101"/>
    <use x="784.716797" xlink:href="#DejaVuSans-114"/>
    <use x="816.705078" xlink:href="#DejaVuSans-46"/>
    <use x="848.492188" xlink:href="#DejaVuSans-102"/>
    <use x="883.697266" xlink:href="#DejaVuSans-97"/>
    <use x="944.976562" xlink:href="#DejaVuSans-115"/>
    <use x="997.076172" xlink:href="#DejaVuSans-116"/>
    <use x="1036.285156" xlink:href="#DejaVuSans-97"/>
    <use x="1097.564453" xlink:href="#DejaVuSans-46"/>
    <use x="1129.351562" xlink:href="#DejaVuSans-116"/>
    <use x="1168.560547" xlink:href="#DejaVuSans-115"/>
    <use x="1220.660156" xlink:href="#DejaVuSans-118"/>
   </g>
  </g>
 </g>
 <defs>
  <clipPath id="p6008ac6204">
   <rect height="104.295249" width="172.0025" x="58.44" y="51.84"/>
  </clipPath>
  <clipPath id="pee11aa3ff4">
   <rect height="104.295249" width="172.0025" x="277.9975" y="51.84"/>
  </clipPath>
  <clipPath id="pd06a44327c">
   <rect height="104.295249" width="172.0025" x="58.44" y="195.464751"/>
  </clipPath>
  <clipPath id="pf5bdd363bf">
   <rect height="104.295249" width="172.0025" x="277.9975" y="195.464751"/>
  </clipPath>
 </defs>
</svg>
